SplineFontDB: 3.2
FontName: NewEng_Hangeul_Style_Regular
FullName: NewEng Hangeul Style Regular
FamilyName: NewEng Hangeul
Weight: Regular
Copyright: Copyright (c) 2024, Phlowyd (Farran Lee De Tao)
UComments: "2024-5-8: Created with FontForge (http://fontforge.org)"
FontLog: "23-05-2024:+AAoA-Added support for Vietnamese and a bunch of other combined glyphs.+AAoA-Fixed a few combining diacritics' positions.+AAoACgAA-17-05-2024: +AAoA-All core diacritics added and positioned using Anchors.+AAoA-Special kerning for a small subset of letters disrupts next letter positioning when diacritics are placed over them. Strange, can't work out the right way to handle this."
Version: 001.004
ItalicAngle: 0
UnderlinePosition: -100
UnderlineWidth: 50
Ascent: 800
Descent: 200
InvalidEm: 0
LayerCount: 2
Layer: 0 0 "Back" 1
Layer: 1 0 "Fore" 0
XUID: [1021 59 1062431447 24466]
StyleMap: 0x0000
FSType: 0
OS2Version: 0
OS2_WeightWidthSlopeOnly: 0
OS2_UseTypoMetrics: 1
CreationTime: 1715150662
ModificationTime: 1716538200
OS2TypoAscent: 0
OS2TypoAOffset: 1
OS2TypoDescent: 0
OS2TypoDOffset: 1
OS2TypoLinegap: 90
OS2WinAscent: 0
OS2WinAOffset: 1
OS2WinDescent: 0
OS2WinDOffset: 1
HheadAscent: 0
HheadAOffset: 1
HheadDescent: 0
HheadDOffset: 1
OS2Vendor: 'PfEd'
Lookup: 3 0 0 "'salt' Stylistic Alternatives lookup 0" { "'salt' Stylistic Alternatives lookup 0-1"  } ['salt' ('DFLT' <'dflt' > 'armn' <'dflt' > 'cyrl' <'dflt' > 'grek' <'dflt' > 'latn' <'dflt' > ) ]
Lookup: 4 0 1 "'liga' Standard Ligatures lookup 0" { "'liga' Standard Ligatures lookup 0-1"  "'liga' Non-standard Ligatures lookup 0-2"  } ['liga' ('DFLT' <'dflt' > 'armn' <'dflt' > 'cyrl' <'dflt' > 'grek' <'dflt' > 'latn' <'dflt' > ) ]
Lookup: 258 0 0 "'kern' Horizontal Kerning lookup 1" { "'kern' Horizontal Kerning lookup 1-1" [100,0,2] } ['kern' ('DFLT' <'dflt' > 'armn' <'dflt' > 'cyrl' <'dflt' > 'grek' <'dflt' > 'latn' <'dflt' > ) ]

StartChar: A
Encoding: 65 65 0
Width: 967
Flags: W
HStem: -57.1025 21G<58.9301 99.5468 801.077 841.693> -57.1025 21G<58.9301 99.5468 801.077 841.693> -57.1025 21G<58.9301 99.5468 801.077 841.693> -57.1025 21G<58.9301 99.5468 801.077 841.693> 313.972 114.205<242.355 725.095> 685.044 114.205<242.355 792.146>
VStem: 50 125.297<26.46 313.972 371.908 685.044> 792.146 125.297<26.46 370.235 428.177 685.044>
AnchorPoint: "Attacha 2" 792 716 basechar 0
AnchorPoint: "Anchora 1" 484 935 basechar 0
AnchorPoint: "Attacha 4 Cedilla" 484 0 basechar 0
AnchorPoint: "Anchora 3" 484 -200 basechar 0
LayerCount: 2
Back
SplineSet
235.086914062 55.4521484375 m 1
 43.576171875 -105.245117188 l 1
 1.794921875 -55.4521484375 l 1
 1.794921875 686.694335938 l 1
 193.305664062 847.391601562 l 1
 231.635742188 801.7109375 l 1
 286.075195312 847.391601562 l 1
 935.452148438 847.391601562 l 1
 977.233398438 797.598632812 l 1
 977.233398438 55.4521484375 l 1
 785.72265625 -105.245117188 l 1
 743.94140625 -55.4521484375 l 1
 743.94140625 308.608398438 l 1
 692.958984375 265.829101562 l 1
 235.086914062 265.829101562 l 1
 235.086914062 55.4521484375 l 1
235.086914062 636.901367188 m 1
 235.086914062 433.53515625 l 1
 286.075195312 476.319335938 l 1
 743.94140625 476.319335938 l 1
 743.94140625 636.901367188 l 1
 235.086914062 636.901367188 l 1
1294.22363281 659.573242188 m 1
 1294.22363281 436.83203125 l 1
 1315.92675781 447.2265625 1337.3671875 453.647460938 1355.41796875 453.647460938 c 2
 1823.66015625 453.647460938 l 1
 1823.66015625 659.573242188 l 1
 1294.22363281 659.573242188 l 1
1855.23632812 -82.5732421875 m 0
 1844.81347656 -82.5732421875 1823.66015625 -79.876953125 1823.66015625 -57.9951171875 c 2
 1823.66015625 305.313476562 l 1
 1801.95996094 294.920898438 1780.52148438 288.500976562 1762.47265625 288.500976562 c 2
 1294.22363281 288.500976562 l 1
 1294.22363281 57.9951171875 l 2
 1294.22363281 6.2158203125 1180.21582031 -82.5732421875 1113.08984375 -82.5732421875 c 0
 1102.66699219 -82.5732421875 1081.51367188 -79.876953125 1081.51367188 -57.9951171875 c 2
 1081.51367188 684.151367188 l 2
 1081.51367188 735.930664062 1195.52246094 824.719726562 1262.6484375 824.719726562 c 0
 1271.77246094 824.719726562 1289.11914062 822.653320312 1293.30078125 807.459960938 c 1
 1315.31738281 818.115234375 1337.11132812 824.719726562 1355.41796875 824.719726562 c 2
 2004.79492188 824.719726562 l 2
 2015.21777344 824.719726562 2036.37011719 822.0234375 2036.37011719 800.141601562 c 2
 2036.37011719 57.9951171875 l 2
 2036.37011719 6.2158203125 1922.36230469 -82.5732421875 1855.23632812 -82.5732421875 c 0
205.41796875 371.07421875 m 5
 762.03125 371.07421875 l 1029
112.6484375 0 m 5
 112.6484375 742.146484375 l 1029
205.41796875 742.146484375 m 5
 854.794921875 742.146484375 l 5
 854.794921875 0 l 1029
EndSplineSet
Fore
SplineSet
175.296875 26.4599609375 m 1x8f
 75.7119140625 -57.1025390625 l 1
 50 -26.4599609375 l 1
 50 715.686523438 l 1
 149.5859375 799.249023438 l 1
 175.296875 768.606445312 l 1
 175.296875 742.98046875 l 1
 242.35546875 799.249023438 l 1
 891.732421875 799.249023438 l 1
 917.443359375 768.606445312 l 1
 917.443359375 26.4599609375 l 1
 817.858398438 -57.1025390625 l 1
 792.146484375 -26.4599609375 l 1
 792.146484375 370.235351562 l 1
 725.094726562 313.971679688 l 1
 175.296875 313.971679688 l 1
 175.296875 26.4599609375 l 1x8f
175.296875 685.043945312 m 1
 175.296875 371.908203125 l 1
 242.35546875 428.176757812 l 1
 792.146484375 428.176757812 l 1
 792.146484375 685.043945312 l 1
 175.296875 685.043945312 l 1
539.555664062 -57.1025390625 m 1028x1f
EndSplineSet
EndChar

StartChar: Amacron
Encoding: 256 256 2
Width: 967
Flags: HW
HStem: -57.1025 21G<58.9301 99.5468 58.9301 99.5468 801.077 841.693 801.077 841.693> 313.972 114.205<242.355 725.095> 685.044 114.205<242.355 792.146> 779.249 20G<125.751 166.367> 925.942 100.115<247.506 731.479>
VStem: 50 125.297<26.46 313.972 371.908 685.044> 792.146 125.297<26.46 370.235 428.177 685.044>
AnchorPoint: "Attacha 4 Cedilla" 484 0 basechar 0
AnchorPoint: "Anchora 1" 546 1095 basechar 0
LayerCount: 2
Back
SplineSet
254.384765625 976 m 5
 811 976 l 1029
EndSplineSet
Fore
Refer: 86 772 S 1 0 0 1 1013.8 0 2
Refer: 0 65 N 1 0 0 1 0 0 2
EndChar

StartChar: B
Encoding: 66 66 3
Width: 967
Flags: W
HStem: -57.1025 114.205<242.355 725.095> -57.1025 21G<58.9301 99.5468 801.082 841.699> -57.1025 21G<58.9301 99.5468 801.082 841.699> -57.1025 21G<58.9301 99.5468 801.082 841.699> 313.972 114.205<242.355 614.339 657.869 792.152> 685.044 114.205<242.355 606.613>
VStem: 50 125.297<26.46 313.972 371.908 685.044> 606.613 125.297<490.304 685.044> 792.152 125.297<57.1025 313.972>
AnchorPoint: "Anchora 3" 484 -200 basechar 0
AnchorPoint: "Attacha 4 Cedilla" 484 0 basechar 0
AnchorPoint: "Anchora 1" 484 935 basechar 0
AnchorPoint: "Attacha 2" 792 716 basechar 0
LayerCount: 2
Back
SplineSet
205.41796875 0 m 5
 762.03125 0 l 1029
205.41796875 371.07421875 m 5
 854.80078125 371.07421875 l 5
 854.80078125 0 l 1029
205.41796875 742.146484375 m 5
 669.26171875 742.146484375 l 5
 669.26171875 463.84375 l 1029
112.6484375 742.146484375 m 5
 112.6484375 0 l 1029
EndSplineSet
Fore
SplineSet
792.146484375 685.043945312 m 1029x0f80
50 715.686523438 m 1
 149.5859375 799.249023438 l 1
 175.296875 768.606445312 l 1
 175.296875 742.98046875 l 1
 242.35546875 799.249023438 l 1
 706.19921875 799.249023438 l 1
 731.91015625 768.606445312 l 1
 731.91015625 490.303710938 l 1
 657.869140625 428.176757812 l 1
 891.73828125 428.176757812 l 1
 917.44921875 397.534179688 l 1
 917.44921875 26.4599609375 l 1
 817.864257812 -57.1025390625 l 1x4f80
 792.15234375 -26.4599609375 l 1
 792.15234375 -0.833984375 l 1
 725.094726562 -57.1025390625 l 1x8f80
 168.481445312 -57.1025390625 l 1x1f80
 142.76953125 -26.4599609375 l 1
 242.35546875 57.1025390625 l 1
 792.15234375 57.1025390625 l 1x8f80
 792.15234375 313.971679688 l 1
 175.296875 313.971679688 l 1
 175.296875 26.4599609375 l 1
 75.7119140625 -57.1025390625 l 1x4f80
 50 -26.4599609375 l 1
 50 715.686523438 l 1
175.296875 685.043945312 m 1
 175.296875 371.908203125 l 1
 242.35546875 428.176757812 l 1
 614.338867188 428.176757812 l 1
 606.61328125 437.383789062 l 1
 606.61328125 685.043945312 l 1
 175.296875 685.043945312 l 1
539.555664062 -57.1025390625 m 1028x8f80
EndSplineSet
EndChar

StartChar: C
Encoding: 67 67 4
Width: 967
Flags: W
HStem: -57.1025 114.205<175.297 817.858> 685.044 114.205<167.576 817.858>
VStem: 50 125.297<57.1025 622.923>
AnchorPoint: "Anchora 3" 484 -200 basechar 0
AnchorPoint: "Attacha 4 Cedilla" 484 0 basechar 0
AnchorPoint: "Anchora 1" 484 935 basechar 0
AnchorPoint: "Attacha 2" 792 716 basechar 0
LayerCount: 2
Back
SplineSet
112.6484375 649.3828125 m 5
 112.6484375 0 l 5
 854.794921875 0 l 1029
112.6484375 742.146484375 m 5
 854.794921875 742.146484375 l 1029
EndSplineSet
Fore
SplineSet
792.146484375 685.043945312 m 1029
75.7119140625 685.043945312 m 1
 50 715.686523438 l 1
 149.5859375 799.249023438 l 1
 891.732421875 799.249023438 l 1
 917.443359375 768.606445312 l 1
 817.858398438 685.043945312 l 1
 167.576171875 685.043945312 l 1
 175.296875 675.842773438 l 1
 175.296875 57.1025390625 l 1
 891.732421875 57.1025390625 l 1
 917.443359375 26.4599609375 l 1
 817.858398438 -57.1025390625 l 1
 75.7119140625 -57.1025390625 l 1
 50 -26.4599609375 l 1
 50 622.922851562 l 1
 124.034179688 685.043945312 l 1
 75.7119140625 685.043945312 l 1
539.555664062 -57.1025390625 m 1028
EndSplineSet
EndChar

StartChar: D
Encoding: 68 68 5
Width: 967
Flags: W
HStem: -57.1025 114.205<242.35 656.503> -57.1025 21G<58.9301 99.5468> -57.1025 21G<58.9301 99.5468> -57.1025 21G<58.9301 99.5468> 685.044 114.205<242.35 632.319>
VStem: 50 125.297<26.46 685.044> 792.146 125.297<182.46 525.222>
AnchorPoint: "Anchora 3" 484 -200 basechar 0
AnchorPoint: "Attacha 4 Cedilla" 484 0 basechar 0
AnchorPoint: "Anchora 1" 484 935 basechar 0
AnchorPoint: "Attacha 2" 792 716 basechar 0
LayerCount: 2
Back
SplineSet
205.412109375 0 m 5
 669.255859375 0 l 5
 724.255859375 46 l 1029
205.412109375 742.146484375 m 5
 669.255859375 742.146484375 l 5
 854.794921875 556.61328125 l 5
 854.794921875 156 l 1029
112.6484375 742.146484375 m 5
 112.6484375 0 l 1029
1151.51855469 0 m 1
 1708.13183594 0 l 1025
1151.51855469 742.146484375 m 1
 1615.36230469 742.146484375 l 1
 1800.89550781 556.61328125 l 1
 1800.89550781 0 l 1025
1058.74902344 742.146484375 m 1
 1058.74902344 0 l 1025
EndSplineSet
Fore
SplineSet
792.146484375 685.043945312 m 1029x0e
50 715.686523438 m 1
 149.5859375 799.249023438 l 1
 175.296875 768.606445312 l 1
 175.296875 742.985351562 l 1
 242.349609375 799.249023438 l 1
 706.193359375 799.249023438 l 1
 891.732421875 613.715820312 l 1
 917.443359375 583.073242188 l 1
 917.443359375 182.459960938 l 1
 817.858398438 98.8974609375 l 1
 792.146484375 129.540039062 l 1
 792.146484375 525.221679688 l 1
 632.319335938 685.043945312 l 1
 175.296875 685.043945312 l 1
 175.296875 26.4599609375 l 1
 75.7119140625 -57.1025390625 l 1x4e
 50 -26.4599609375 l 1
 50 715.686523438 l 1
168.475585938 -57.1025390625 m 1x1e
 142.763671875 -26.4599609375 l 1
 242.349609375 57.1025390625 l 1
 706.193359375 57.1025390625 l 1
 761.193359375 103.102539062 l 1
 786.904296875 72.4599609375 l 1
 735.399414062 29.25 683.932617188 -14 632.319335938 -57.1025390625 c 1x8e
 168.475585938 -57.1025390625 l 1x1e
539.555664062 -57.1025390625 m 1028
EndSplineSet
EndChar

StartChar: Ccedilla
Encoding: 199 199 6
Width: 967
Flags: HW
HStem: -57.1025 114.205<298.804 561.017> 312.897 114.205<175.297 609.113 686.313 817.866> 685.044 114.205<167.576 817.866>
VStem: 50 125.297<427.103 622.923> 561.017 125.297<57.1025 272.54>
AnchorPoint: "Attacha 4 Cedilla" 484 0 basechar 0
AnchorPoint: "Anchora 1" 483.797 975 basechar 0
LayerCount: 2
Back
SplineSet
37.783203125 636.901367188 m 5
 -3.998046875 686.694335938 l 5
 187.512695312 847.391601562 l 5
 929.666992188 847.391601562 l 5
 971.448242188 797.598632812 l 5
 779.9375 636.901367188 l 5
 229.293945312 636.901367188 l 5
 229.293945312 475.245117188 l 5
 929.666992188 475.245117188 l 5
 971.448242188 425.452148438 l 5
 779.9375 264.754882812 l 5
 721.211914062 264.754882812 l 5
 741.15234375 240.991210938 l 5
 741.15234375 55.4521484375 l 5
 549.641601562 -105.245117188 l 5
 176.248046875 -105.245117188 l 5
 134.466796875 -55.4521484375 l 5
 325.977539062 105.245117188 l 5
 507.860351562 105.245117188 l 5
 507.860351562 130.086914062 l 5
 668.3515625 264.754882812 l 5
 37.783203125 264.754882812 l 5
 -3.998046875 314.547851562 l 5
 -3.998046875 593.930664062 l 5
 47.212890625 636.901367188 l 5
 37.783203125 636.901367188 l 5
623.665039062 185.5390625 m 1
 623.665039062 0 l 1
 261.866210938 0 l 1025
112.6484375 649.3828125 m 1
 112.6484375 370 l 1
 854.802734375 370 l 1025
112.6484375 742.146484375 m 1
 854.802734375 742.146484375 l 1025
EndSplineSet
Fore
SplineSet
175.296875 427.102539062 m 1
 891.740234375 427.102539062 l 1
 917.451171875 396.459960938 l 1
 817.866210938 312.897460938 l 1
 686.313476562 312.897460938 l 1
 686.313476562 26.4599609375 l 1
 586.728515625 -57.1025390625 l 1
 224.9296875 -57.1025390625 l 1
 199.217773438 -26.4599609375 l 1
 298.803710938 57.1025390625 l 1
 561.016601562 57.1025390625 l 1
 561.016601562 272.540039062 l 1
 609.11328125 312.897460938 l 1
 75.7119140625 312.897460938 l 1
 50 343.540039062 l 1
 50 622.922851562 l 1
 124.034179688 685.043945312 l 1
 75.7119140625 685.043945312 l 1
 50 715.686523438 l 1
 149.5859375 799.249023438 l 1
 891.740234375 799.249023438 l 1
 917.451171875 768.606445312 l 1
 817.866210938 685.043945312 l 1
 167.576171875 685.043945312 l 1
 175.296875 675.842773438 l 1
 175.296875 427.102539062 l 1
EndSplineSet
EndChar

StartChar: E
Encoding: 69 69 7
Width: 967
Flags: W
HStem: -57.1025 114.205<175.297 817.866> 313.972 114.205<232.624 632.325> 685.044 114.205<167.576 817.866>
VStem: 50 125.297<57.1025 313.972 380.073 622.923>
AnchorPoint: "Attacha 2" 792 716 basechar 0
AnchorPoint: "Anchora 1" 484 935 basechar 0
AnchorPoint: "Attacha 4 Cedilla" 484 0 basechar 0
AnchorPoint: "Anchora 3" 484 -200 basechar 0
LayerCount: 2
Back
SplineSet
195.686523438 371.07421875 m 5
 669.26171875 371.07421875 l 1029
112.6484375 649.3828125 m 5
 112.6484375 0 l 5
 854.802734375 0 l 1029
112.6484375 742.146484375 m 5
 854.802734375 742.146484375 l 1029
EndSplineSet
Fore
SplineSet
75.7119140625 685.043945312 m 1
 50 715.686523438 l 1
 149.5859375 799.249023438 l 1
 891.740234375 799.249023438 l 1
 917.451171875 768.606445312 l 1
 817.866210938 685.043945312 l 1
 167.576171875 685.043945312 l 1
 175.296875 675.842773438 l 1
 175.296875 380.073242188 l 1
 232.624023438 428.176757812 l 1
 706.19921875 428.176757812 l 1
 731.91015625 397.534179688 l 1
 632.325195312 313.971679688 l 1
 175.296875 313.971679688 l 1
 175.296875 57.1025390625 l 1
 891.740234375 57.1025390625 l 1
 917.451171875 26.4599609375 l 1
 817.866210938 -57.1025390625 l 1
 75.7119140625 -57.1025390625 l 1
 50 -26.4599609375 l 1
 50 622.922851562 l 1
 124.034179688 685.043945312 l 1
 75.7119140625 685.043945312 l 1
539.555664062 -57.1025390625 m 1028
EndSplineSet
EndChar

StartChar: Dcroat
Encoding: 272 272 8
Width: 1000
Flags: HW
HStem: -57.1025 114.205<275.187 689.34> -57.1025 21G<91.767 132.384> 413.972 114.205<69.5859 82.8369 208.134 386.852> 685.044 114.205<275.187 665.156> 779.249 20G<158.588 199.204>
VStem: 82.8369 125.297<26.46 413.972 528.177 685.044> 824.983 125.297<182.46 525.222>
AnchorPoint: "Attacha 4 Cedilla" 484 0 basechar 0
AnchorPoint: "Anchora 1" 437.78 891 basechar 0
LayerCount: 2
Back
SplineSet
-1294.61425781 265.829101562 m 1x4c
 -1388.18457031 265.829101562 l 1
 -1429.96582031 315.622070312 l 1
 -1294.61425781 429.1953125 l 1
 -1294.61425781 686.694335938 l 1
 -1103.10351562 847.391601562 l 1x5c
 -1064.77539062 801.713867188 l 1
 -1010.33984375 847.391601562 l 1x2c
 -546.49609375 847.391601562 l 1
 -360.95703125 661.858398438 l 1
 -319.17578125 612.065429688 l 1
 -319.17578125 55.4521484375 l 1
 -510.686523438 -105.245117188 l 1x5c
 -549.016601562 -59.564453125 l 1
 -603.456054688 -105.245117188 l 1x8c
 -1160.06933594 -105.245117188 l 1
 -1198.39746094 -59.5673828125 l 1
 -1252.83300781 -105.245117188 l 1
 -1294.61425781 -55.4521484375 l 1
 -1294.61425781 265.829101562 l 1x4c
-1061.32226562 636.901367188 m 1xac
 -1061.32226562 476.319335938 l 1
 -824.80078125 476.319335938 l 1
 -783.01953125 426.526367188 l 1
 -974.530273438 265.829101562 l 1
 -1061.32226562 265.829101562 l 1
 -1061.32226562 62.4658203125 l 1
 -1010.33984375 105.245117188 l 1
 -552.467773438 105.245117188 l 1
 -552.467773438 493.1484375 l 1
 -696.225585938 636.901367188 l 1
 -1061.32226562 636.901367188 l 1xac
-37.0751953125 471.07421875 m 17
 53.9248046875 471.07421875 l 9
 423.478515625 471.07421875 l 1025
237.939453125 0 m 1
 701.783203125 0 l 1
 756.783203125 46 l 1025
237.939453125 742.146484375 m 1
 701.783203125 742.146484375 l 1
 887.322265625 556.61328125 l 1
 887.322265625 156 l 1025
145.17578125 742.146484375 m 1
 145.17578125 0 l 1025
EndSplineSet
Fore
SplineSet
950.280273438 182.459960938 m 1x2e
 850.6953125 98.8974609375 l 1
 824.983398438 129.540039062 l 1
 824.983398438 525.221679688 l 1
 665.15625 685.043945312 l 1
 208.133789062 685.043945312 l 1x36
 208.133789062 528.176757812 l 1
 460.725585938 528.176757812 l 1
 486.436523438 497.534179688 l 1
 386.8515625 413.971679688 l 1
 208.133789062 413.971679688 l 1
 208.133789062 26.4599609375 l 1
 108.548828125 -57.1025390625 l 1
 82.8369140625 -26.4599609375 l 1
 82.8369140625 413.971679688 l 1
 -4.2880859375 413.971679688 l 1
 -30 444.614257812 l 1
 69.5859375 528.176757812 l 1
 82.8369140625 528.176757812 l 1
 82.8369140625 715.686523438 l 1
 182.422851562 799.249023438 l 1x6e
 208.133789062 768.606445312 l 1
 208.133789062 742.985351562 l 1
 275.186523438 799.249023438 l 1x36
 739.030273438 799.249023438 l 1
 924.569335938 613.715820312 l 1
 950.280273438 583.073242188 l 1
 950.280273438 182.459960938 l 1x2e
665.15625 -57.1025390625 m 1xa6
 201.3125 -57.1025390625 l 1x66
 175.600585938 -26.4599609375 l 1
 275.186523438 57.1025390625 l 1
 739.030273438 57.1025390625 l 1
 794.030273438 103.102539062 l 1
 819.741210938 72.4599609375 l 1
 768.236328125 29.25 716.76953125 -14 665.15625 -57.1025390625 c 1xa6
EndSplineSet
EndChar

StartChar: Emacron
Encoding: 274 274 11
Width: 967
Flags: HW
HStem: -57.1025 114.205<175.074 817.643> 313.972 114.205<232.401 632.102> 685.044 114.205<167.353 817.643> 925.942 100.115<249.566 733.539>
VStem: 49.7769 125.297<57.1025 313.972 380.073 622.923>
AnchorPoint: "Attacha 4 Cedilla" 484 0 basechar 0
AnchorPoint: "Anchora 1" 550.555 1095 basechar 0
LayerCount: 2
Back
SplineSet
194.34765625 324.439453125 m 5
 658.19140625 324.439453125 l 1029
101.578125 556.61328125 m 5
 101.578125 0 l 5
 843.724609375 0 l 1029
101.578125 649.3828125 m 5
 843.724609375 649.3828125 l 1029
194.34765625 834.91796875 m 5
 750.955078125 834.91796875 l 1029
EndSplineSet
Fore
Refer: 86 772 N 1 0 0 1 1015.86 0 2
Refer: 7 69 N 1 0 0 1 -0.223145 0 3
EndChar

StartChar: Imacron
Encoding: 298 298 13
Width: 967
Flags: HW
HStem: -57.1025 114.205<149.366 427.437 470.967 817.639> 685.044 114.205<149.366 488.454 541.013 817.639> 925.942 100.115<283.286 767.259>
VStem: 419.711 125.297<119.229 627.362>
AnchorPoint: "Attacha 4 Cedilla" 484 0 basechar 0
AnchorPoint: "Anchora 1" 550.561 1095 basechar 0
LayerCount: 2
Back
SplineSet
90.0078125 0 m 1
 832.15625 0 l 1025
461.08203125 556.61328125 m 1
 461.08203125 92.76953125 l 1025
90.0078125 649.383789062 m 1
 832.15625 649.383789062 l 1025
182.771484375 834.91796875 m 1
 739.38671875 834.91796875 l 1025
EndSplineSet
Fore
Refer: 86 772 N 1 0 0 1 1049.58 0 2
Refer: 34 73 N 1 0 0 1 -0.219726 0 3
EndChar

StartChar: Omacron
Encoding: 332 332 15
Width: 967
Flags: HW
HStem: -57.1025 114.205<203.371 764.951> 685.044 114.205<202.055 763.634> 925.942 100.115<278.606 762.579>
VStem: 49.7803 125.297<85.2115 662.517> 791.928 125.297<79.6299 656.935>
AnchorPoint: "Attacha 4 Cedilla" 484 0 basechar 0
AnchorPoint: "Anchora 1" 546 1095 basechar 0
LayerCount: 2
Back
SplineSet
86.4765625 391.697265625 m 2
 86.4765625 670 86.4765625 670 364.780273438 670 c 2
 550.3203125 670 l 2
 828.624023438 670 828.624023438 670 828.624023438 391.697265625 c 2
 828.624023438 305 l 1
 828.624023438 278.302734375 l 2
 828.624023438 0 828.624023438 0 550.3203125 0 c 2
 364.780273438 0 l 2
 86.4765625 0 86.4765625 0 86.4765625 278.302734375 c 2
 86.4765625 311 l 1
 86.4765625 391.697265625 l 2
179.01953125 834.91796875 m 1
 735.633789062 834.91796875 l 1025
EndSplineSet
Fore
Refer: 86 772 N 1 0 0 1 1044.9 0 2
Refer: 40 79 N 1 0 0 1 -0.21973 0 3
EndChar

StartChar: Umacron
Encoding: 362 362 17
Width: 967
Flags: HW
HStem: -57.1025 21G<800.861 841.477> -57.1025 114.205<175.073 724.873> 779.251 20G<125.527 166.143 125.527 166.143 867.682 908.298 867.682 908.298> 925.942 100.115<277.456 761.429>
VStem: 49.7764 125.297<57.1025 715.688> 791.931 125.297<57.1025 715.688>
AnchorPoint: "Attacha 4 Cedilla" 484 0 basechar 0
AnchorPoint: "Anchora 1" 545 1095 basechar 0
LayerCount: 2
Back
SplineSet
842.048828125 649.37890625 m 5
 842.048828125 -2.1376953125 l 1029
99.90234375 649.37890625 m 5
 99.90234375 0 l 5
 749.28515625 0 l 1029
192.671875 834.91796875 m 5
 749.28515625 834.91796875 l 1029
EndSplineSet
Fore
Refer: 86 772 S 1 0 0 1 1043.75 0 2
Refer: 48 85 N 1 0 0 1 -0.223628 0 3
EndChar

StartChar: Phi
Encoding: 934 934 19
Width: 967
Flags: HW
HStem: 128.438 114.205<175.297 421.074 546.371 792.147> 499.511 114.205<175.297 421.074 546.371 792.147>
VStem: 50 125.297<242.644 499.511> 421.074 125.297<-66.3096 128.438 242.644 499.511 613.716 808.458> 792.147 125.297<242.644 499.511>
AnchorPoint: "Attacha 4 Cedilla" 484 0 basechar 0
AnchorPoint: "Anchora 1" 494.019 949 basechar 0
LayerCount: 2
Back
SplineSet
112.6484375 556.61328125 m 1
 854.795898438 556.61328125 l 1
 854.795898438 185.541015625 l 1
 112.6484375 185.541015625 l 1
 112.6484375 556.61328125 l 1
-767.963867188 779.465820312 m 5
 -576.453125 940.163085938 l 5
 -534.671875 890.370117188 l 5
 -534.671875 661.858398438 l 5
 -205.379882812 661.858398438 l 5
 -163.598632812 612.065429688 l 5
 -163.598632812 240.993164062 l 5
 -355.109375 80.2958984375 l 5
 -534.671875 80.2958984375 l 5
 -534.671875 -37.3173828125 l 5
 -726.182617188 -198.014648438 l 5
 -767.963867188 -148.221679688 l 5
 -767.963867188 80.2958984375 l 5
 -1097.25683594 80.2958984375 l 5
 -1139.03808594 130.088867188 l 5
 -1139.03808594 501.161132812 l 5
 -947.52734375 661.858398438 l 5
 -767.963867188 661.858398438 l 5
 -767.963867188 779.465820312 l 5
-767.963867188 451.368164062 m 5
 -905.74609375 451.368164062 l 5
 -905.74609375 290.786132812 l 5
 -767.963867188 290.786132812 l 5
 -767.963867188 451.368164062 l 5
-534.671875 451.368164062 m 5
 -534.671875 290.786132812 l 5
 -396.890625 290.786132812 l 5
 -396.890625 451.368164062 l 5
 -534.671875 451.368164062 l 5
-646.935546875 -92.76953125 m 5
 -646.935546875 834.91796875 l 5
 -646.935546875 -92.76953125 l 5
-1018.00976562 556.61328125 m 5
 -275.862304688 556.61328125 l 5
 -275.862304688 185.541015625 l 5
 -1018.00976562 185.541015625 l 5
 -1018.00976562 556.61328125 l 5
EndSplineSet
Fore
SplineSet
421.07421875 808.458007812 m 1
 520.66015625 892.020507812 l 1
 546.37109375 861.377929688 l 1
 546.37109375 613.715820312 l 1
 891.733398438 613.715820312 l 1
 917.444335938 583.073242188 l 1
 917.444335938 212.000976562 l 1
 817.859375 128.438476562 l 1
 546.37109375 128.438476562 l 1
 546.37109375 -66.3095703125 l 1
 446.786132812 -149.872070312 l 1
 421.07421875 -119.229492188 l 1
 421.07421875 128.438476562 l 1
 75.7119140625 128.438476562 l 1
 50 159.081054688 l 1
 50 530.153320312 l 1
 149.5859375 613.715820312 l 1
 421.07421875 613.715820312 l 1
 421.07421875 808.458007812 l 1
421.07421875 499.510742188 m 1
 175.296875 499.510742188 l 1
 175.296875 242.643554688 l 1
 421.07421875 242.643554688 l 1
 421.07421875 499.510742188 l 1
546.37109375 499.510742188 m 1
 546.37109375 242.643554688 l 1
 792.147460938 242.643554688 l 1
 792.147460938 499.510742188 l 1
 546.37109375 499.510742188 l 1
EndSplineSet
EndChar

StartChar: F
Encoding: 70 70 20
Width: 967
Flags: W
HStem: -57.1025 21G<58.9301 99.5468> -57.1025 21G<58.9301 99.5468> -57.1025 21G<58.9301 99.5468> -57.1025 21G<58.9301 99.5468> 313.972 114.205<242.355 632.325> 685.044 114.205<167.576 817.864>
VStem: 50 125.297<26.46 313.972 371.908 622.923>
AnchorPoint: "Attacha 2" 792 716 basechar 0
AnchorPoint: "Anchora 1" 484 935 basechar 0
AnchorPoint: "Attacha 4 Cedilla" 484 0 basechar 0
AnchorPoint: "Anchora 3" 484 -200 basechar 0
LayerCount: 2
Back
SplineSet
205.41796875 371.07421875 m 5
 669.26171875 371.07421875 l 1029
112.6484375 649.3828125 m 5
 112.6484375 0 l 1029
112.6484375 742.146484375 m 5
 854.80078125 742.146484375 l 1029
EndSplineSet
Fore
SplineSet
75.7119140625 685.043945312 m 1x8e
 50 715.686523438 l 1
 149.5859375 799.249023438 l 1
 891.73828125 799.249023438 l 1
 917.44921875 768.606445312 l 1
 817.864257812 685.043945312 l 1
 167.576171875 685.043945312 l 1
 175.296875 675.842773438 l 1
 175.296875 371.908203125 l 1
 242.35546875 428.176757812 l 1
 706.19921875 428.176757812 l 1
 731.91015625 397.534179688 l 1
 632.325195312 313.971679688 l 1
 175.296875 313.971679688 l 1
 175.296875 26.4599609375 l 1
 75.7119140625 -57.1025390625 l 1
 50 -26.4599609375 l 1
 50 622.922851562 l 1
 124.034179688 685.043945312 l 1
 75.7119140625 685.043945312 l 1x8e
539.555664062 -57.1025390625 m 1028x1e
EndSplineSet
EndChar

StartChar: G
Encoding: 71 71 21
Width: 967
Flags: W
HStem: -57.1025 114.205<175.297 799.878> 313.972 114.205<520.659 792.152> 685.044 114.205<167.576 817.864>
VStem: 50 125.297<57.1025 622.923> 792.152 125.297<119.229 313.972>
AnchorPoint: "Attacha 2" 792 716 basechar 0
AnchorPoint: "Anchora 1" 484 935 basechar 0
AnchorPoint: "Attacha 4 Cedilla" 484 0 basechar 0
AnchorPoint: "Anchora 3" 484 -200 basechar 0
LayerCount: 2
Back
SplineSet
483.721679688 371.07421875 m 5
 854.80078125 371.07421875 l 5
 854.80078125 92.76953125 l 1029
112.6484375 649.3828125 m 5
 112.6484375 0 l 5
 854.80078125 0 l 1029
116.633789062 742.146484375 m 5
 854.80078125 742.146484375 l 1029
EndSplineSet
Fore
SplineSet
79.697265625 685.043945312 m 1
 53.9853515625 715.686523438 l 1
 153.571289062 799.249023438 l 1
 891.73828125 799.249023438 l 1
 917.44921875 768.606445312 l 1
 817.864257812 685.043945312 l 1
 167.576171875 685.043945312 l 1
 175.296875 675.842773438 l 1
 175.296875 57.1025390625 l 1
 799.877929688 57.1025390625 l 1
 792.15234375 66.3095703125 l 1
 792.15234375 313.971679688 l 1
 446.78515625 313.971679688 l 1
 421.073242188 344.614257812 l 1
 520.659179688 428.176757812 l 1
 891.73828125 428.176757812 l 1
 917.44921875 397.534179688 l 1
 917.44921875 119.229492188 l 1
 843.408203125 57.1025390625 l 1
 891.73828125 57.1025390625 l 1
 917.44921875 26.4599609375 l 1
 817.864257812 -57.1025390625 l 1
 75.7119140625 -57.1025390625 l 1
 50 -26.4599609375 l 1
 50 622.922851562 l 1
 124.034179688 685.043945312 l 1
 79.697265625 685.043945312 l 1
539.555664062 -57.1025390625 m 1028
EndSplineSet
EndChar

StartChar: uni021C
Encoding: 540 540 23
Width: 960
Flags: HW
HStem: -57.1025 114.205<149.586 579.758> 312.903 114.205<361.586 580.697 744.586 784.858> 684.909 114.205<149.586 785>
VStem: 785 125.297<218.99 312.897 588.044 684.909>
AnchorPoint: "Attacha 4 Cedilla" 484 0 basechar 0
LayerCount: 2
Back
SplineSet
112.6484375 0 m 5
 594.6484375 0 l 5
 847.6484375 211 l 21
 847.47265625 370 l 5
 707.6484375 370 l 1053
324.6484375 370.005859375 m 5
 595.6484375 369.999023438 l 5
 847.6484375 580 l 5
 847.6484375 742.01171875 l 5
 112.6484375 742.01171875 l 1029
-346.3515625 106 m 25
 -473.3515625 0 l 1
 -955.3515625 0 l 1
 -1982.42773438 0 l 1025
-955.3515625 742.01171875 m 1
 -220.3515625 742.01171875 l 1
 -220.3515625 580 l 1025
-346.3515625 474.999023438 m 1
 -472.3515625 369.999023438 l 1
 -743.3515625 370.005859375 l 1
 -1240.28027344 371.07421875 l 1
 -1240.28027344 0 l 1025
-220.3515625 211 m 1
 -220.52734375 370 l 1
 -360.3515625 370 l 1049
-1975.52832031 742.146484375 m 1
 -1240.28027344 742.146484375 l 1
 -1710.88964844 271 l 1024
-3028.49902344 0 m 1
 -2379.12109375 0 l 1025
-3021.59960938 742.146484375 m 1
 -2286.3515625 742.146484375 l 1
 -3027.65136719 371.07421875 l 1
 -2286.3515625 371.07421875 l 1
 -2286.3515625 0 l 1025
EndSplineSet
Fore
SplineSet
785 684.909179688 m 1
 75.7119140625 684.909179688 l 1
 50 715.551757812 l 1
 149.5859375 799.114257812 l 1
 884.5859375 799.114257812 l 1
 910.296875 768.471679688 l 1
 910.296875 606.459960938 l 1
 793.510742188 508.196289062 675.947265625 410.7109375 558.711914062 312.896484375 c 1
 287.711914062 312.903320312 l 1
 262 343.545898438 l 1
 361.5859375 427.108398438 l 1
 632.5859375 427.1015625 l 1
 785 554.11328125 l 1
 785 684.909179688 l 1
75.7119140625 -57.1025390625 m 1
 50 -26.4599609375 l 1
 149.5859375 57.1025390625 l 1
 631.5859375 57.1025390625 l 1
 784.999023438 185.047851562 l 1
 784.858398438 312.897460938 l 1
 670.711914062 312.897460938 l 1
 645 343.540039062 l 1
 744.5859375 427.102539062 l 1
 884.41015625 427.102539062 l 1
 910.12109375 396.459960938 l 1
 910.296875 237.459960938 l 1
 793.131835938 138.909179688 675.275390625 41.0498046875 557.711914062 -57.1025390625 c 1
 75.7119140625 -57.1025390625 l 1
EndSplineSet
EndChar

StartChar: uniA7B0
Encoding: 42928 42928 25
Width: 967
UnlinkRmOvrlpSave: 1
Flags: W
HStem: -57.1025 21G<801.084 841.701> -57.1025 21G<801.084 841.701> 313.972 114.205<345.517 443.426 573.426 725.097> 313.972 9.02832<443.426 573.426> 779.249 20G<125.751 166.367 867.905 908.521> 779.249 20G<125.751 166.367 867.905 908.521>
VStem: 792.154 125.297<26.46 370.24 428.177 715.687>
LayerCount: 2
Back
SplineSet
-158.248046875 55.4521484375 m 5xa8
 -349.758789062 -105.245117188 l 5
 -391.540039062 -55.4521484375 l 5
 -391.540039062 308.61328125 l 5
 -442.528320312 265.829101562 l 5
 -906.372070312 265.829101562 l 5
 -948.153320312 315.622070312 l 5
 -1133.69433594 686.694335938 l 5
 -942.18359375 847.391601562 l 5
 -900.40234375 797.598632812 l 5
 -739.7578125 476.319335938 l 5
 -391.540039062 476.319335938 l 5
 -391.540039062 686.694335938 l 5
 -200.029296875 847.391601562 l 5
 -158.248046875 797.598632812 l 5
 -158.248046875 55.4521484375 l 5xa8
-799.775390625 34.3544921875 m 5
 -1016.28222656 -90.6455078125 l 5
 -1048.78222656 -34.3544921875 l 5
 -770.471679688 243.948242188 l 5
 -553.96484375 368.948242188 l 5
 -521.46484375 312.657226562 l 5
 -799.775390625 34.3544921875 l 5
205.41796875 0 m 1
 483.728515625 278.302734375 l 1025
762.033203125 371.07421875 m 1
 298.189453125 371.07421875 l 1
 112.6484375 742.146484375 l 1025
854.802734375 0 m 1
 854.802734375 742.146484375 l 1025
EndSplineSet
Fore
SplineSet
917.451171875 26.4599609375 m 1x2a
 817.866210938 -57.1025390625 l 1
 792.154296875 -26.4599609375 l 1
 792.154296875 370.240234375 l 1
 725.096679688 313.971679688 l 1xaa
 261.252929688 313.971679688 l 1x12
 235.541015625 344.614257812 l 1
 50 715.686523438 l 1
 149.5859375 799.249023438 l 1
 175.296875 768.606445312 l 1
 345.516601562 428.176757812 l 1
 792.154296875 428.176757812 l 1
 792.154296875 715.686523438 l 1
 891.740234375 799.249023438 l 1
 917.451171875 768.606445312 l 1
 917.451171875 26.4599609375 l 1x2a
140.41796875 -20 m 1
 140.41796875 20 l 1
 443.42578125 323 l 1
 573.42578125 323 l 1x12
 573.42578125 283 l 1
 270.41796875 -20 l 1
 140.41796875 -20 l 1
EndSplineSet
EndChar

StartChar: uni0539
Encoding: 1337 1337 27
Width: 960
Flags: HW
HStem: -57.1025 114.205<546.369 725.089> -57.1025 21G<58.9301 99.5468 794.413 835.029> 779.249 20G<125.751 166.367 850.428 901.85> 779.249 20G<125.751 166.367 850.428 901.85>
VStem: 50 125.297<26.46 317.907 371.908 715.687> 421.072 125.297<57.1025 251.843> 785.482 125.297<57.1025 670.2>
AnchorPoint: "Attacha 4 Cedilla" 484 0 basechar 0
LayerCount: 2
Back
SplineSet
-1096.92675781 686.694335938 m 5xac
 -905.416015625 847.391601562 l 5
 -863.634765625 797.598632812 l 5
 -863.634765625 433.53515625 l 5
 -812.646484375 476.319335938 l 5
 -169.93359375 847.391601562 l 5
 -128.15234375 797.598632812 l 5
 -128.15234375 55.4521484375 l 5
 -319.663085938 -105.245117188 l 5
 -355.240234375 -62.8466796875 l 5
 -405.768554688 -105.245117188 l 5
 -684.073242188 -105.245117188 l 5
 -725.854492188 -55.4521484375 l 5
 -725.854492188 222.850585938 l 5
 -534.34375 383.547851562 l 5
 -492.5625 333.754882812 l 5
 -492.5625 105.245117188 l 5
 -361.444335938 105.245117188 l 5
 -361.444335938 612.779296875 l 5
 -863.634765625 322.837890625 l 5
 -863.634765625 55.4521484375 l 5
 -1055.14550781 -105.245117188 l 5
 -1096.92675781 -55.4521484375 l 5
 -1096.92675781 686.694335938 l 5xac
483.720703125 278.302734375 m 1
 483.720703125 0 l 1
 762.025390625 0 l 1025
205.41796875 371.07421875 m 1
 848.130859375 742.146484375 l 1
 848.130859375 0 l 1025
112.6484375 742.146484375 m 1
 112.6484375 0 l 1025
EndSplineSet
Fore
SplineSet
546.369140625 57.1025390625 m 1x8e
 785.482421875 57.1025390625 l 1x8e
 785.482421875 670.200195312 l 1
 175.296875 317.907226562 l 1
 175.296875 26.4599609375 l 1
 75.7119140625 -57.1025390625 l 1
 50 -26.4599609375 l 1
 50 715.686523438 l 1
 149.5859375 799.249023438 l 1
 175.296875 768.606445312 l 1
 175.296875 371.908203125 l 1
 242.35546875 428.176757812 l 1
 885.068359375 799.249023438 l 1
 910.779296875 768.606445312 l 1
 910.779296875 26.4599609375 l 1
 811.194335938 -57.1025390625 l 1x6e
 785.482421875 -26.4599609375 l 1
 785.482421875 -6.42578125 l 1
 725.088867188 -57.1025390625 l 1x8e
 446.784179688 -57.1025390625 l 1x4e
 421.072265625 -26.4599609375 l 1
 421.072265625 251.842773438 l 1
 520.658203125 335.405273438 l 1
 546.369140625 304.762695312 l 1
 546.369140625 57.1025390625 l 1x8e
EndSplineSet
EndChar

StartChar: Eng
Encoding: 330 330 29
Width: 967
Flags: HW
HStem: -57.1016 114.204<293.264 792.152> 779.249 20G<125.751 166.367 867.903 908.519> 779.249 20G<125.751 166.367 867.903 908.519>
VStem: 50 125.297<198.627 628.139 689.97 715.687> 792.152 125.297<57.1025 370.24 432.071 715.687>
AnchorPoint: "Attacha 4 Cedilla" 484 0 basechar 0
LayerCount: 2
Back
SplineSet
854.80078125 742.146484375 m 5
 854.80078125 0 l 5
 483.728515625 0 l 5
 112.626953125 0 l 1053
205.41796875 689.135742188 m 5
 762.03125 371.07421875 l 1029
112.6484375 742.146484375 m 5
 112.6484375 172.166992188 l 1029
-1133.81738281 686.694335938 m 1x4c
 -942.306640625 847.391601562 l 1
 -900.525390625 797.598632812 l 1
 -900.525390625 751.596679688 l 1
 -849.537109375 794.380859375 l 1
 -391.665039062 532.7421875 l 1
 -391.665039062 686.694335938 l 1
 -200.154296875 847.391601562 l 1
 -158.373046875 797.598632812 l 1
 -158.373046875 55.4521484375 l 1
 -349.883789062 -105.245117188 l 1
 -720.956054688 -105.245117188 l 1x6c
 -762.737304688 -55.4521484375 l 1
 -571.2265625 105.245117188 l 1
 -391.665039062 105.245117188 l 1x8c
 -391.665039062 308.61328125 l 1
 -442.653320312 265.829101562 l 1
 -900.525390625 527.467773438 l 1
 -900.525390625 55.4521484375 l 1
 -1092.03613281 -105.245117188 l 1
 -1133.81738281 -55.4521484375 l 1
 -1133.81738281 686.694335938 l 1x4c
EndSplineSet
Fore
SplineSet
817.864257812 -57.1025390625 m 1xd8
 219.388671875 -57.1015625 l 1
 193.677734375 -26.4599609375 l 1
 293.263671875 57.1025390625 l 1
 792.15234375 57.1025390625 l 1
 792.15234375 370.240234375 l 1
 725.094726562 313.971679688 l 1
 175.296875 628.138671875 l 1
 175.296875 198.626953125 l 1
 75.7119140625 115.064453125 l 1
 50 145.70703125 l 1
 50 715.686523438 l 1
 149.5859375 799.249023438 l 1
 175.296875 768.606445312 l 1
 175.296875 689.969726562 l 1
 242.35546875 746.23828125 l 1
 792.15234375 432.071289062 l 1
 792.15234375 715.686523438 l 1
 891.73828125 799.249023438 l 1
 917.44921875 768.606445312 l 1
 917.44921875 26.4599609375 l 1
 817.864257812 -57.1025390625 l 1xd8
EndSplineSet
EndChar

StartChar: uni0222
Encoding: 546 546 31
Width: 967
Flags: HW
HStem: -57.1025 114.205<177.65 808.192> 313.903 114.205<179.094 763.673> 779.097 20G<125.751 166.367 867.751 908.367> 779.097 20G<125.751 166.367 867.751 908.367>
VStem: 50 125.297<61.5537 281.54 441.365 715.534> 792 125.297<182.46 292.913 451.858 715.54>
AnchorPoint: "Attacha 4 Cedilla" 484 0 basechar 0
AnchorPoint: "Anchora 1" 559.271 878 basechar 0
LayerCount: 2
Back
SplineSet
854.6484375 742 m 5
 854.6484375 477 l 7
 854.6484375 423.661132812 829.685546875 412 775.612304688 412 c 1031
112.6484375 741.994140625 m 5
 112.6484375 697 l 5
 112.6484375 435 l 7
 112.6484375 372.08984375 174.364257812 371.005859375 240.6484375 371.005859375 c 4
 241.2578125 371.005859375 242.0390625 371.005859375 242.6484375 371.005859375 c 7
 491.6484375 371.005859375 722.012695312 371.005859375 722.6484375 371.005859375 c 7
 853.6484375 371.005859375 854.6484375 370.196289062 854.6484375 308 c 4
 854.6484375 156 l 1029
854.6484375 65 m 7
 854.6484375 0 854.446289062 0 793.6484375 0 c 7
 578.446289062 0 241.6484375 0 241.6484375 0 c 7
 113.002929688 0 113.002929688 0 113.002929688 65 c 4
 112.6484375 308 l 1031
241.6484375 371.005859375 m 4
 242.284179688 371.005859375 243.01171875 371.005859375 243.6484375 371.005859375 c 7
 263.603515625 371.005859375 272.15625 371.005859375 272.15625 371.005859375 c 1029
-1477.734375 0 m 1
 -1013.890625 0 l 1
 -958.890625 46 l 1025
-1477.734375 742.146484375 m 1
 -1013.890625 742.146484375 l 1
 -828.3515625 556.61328125 l 1
 -828.3515625 156 l 1025
-1570.49804688 742.146484375 m 1
 -1570.49804688 0 l 1025
1861.296875 742.1484375 m 1
 1861.296875 439.1484375 l 1025
1119.296875 742.1484375 m 1
 1119.47753906 697.1484375 l 1
 1119.296875 476.1484375 l 3
 1119.296875 413.23828125 1181.01269531 412.1484375 1247.296875 412.1484375 c 0
 1247.90625 412.1484375 1248.6875 412.1484375 1249.296875 412.1484375 c 3
 1498.296875 412.1484375 1728.66113281 412.1484375 1729.296875 412.1484375 c 3
 1860.296875 412.1484375 1861.296875 411.344726562 1861.296875 349.1484375 c 0
 1861.296875 156.1484375 l 1025
1861.296875 65.1484375 m 3
 1861.296875 0.1484375 1861.296875 0.1484375 1800.49902344 0.1484375 c 3
 1585.296875 0.1484375 1248.29394531 0.1484375 1248.29394531 0.1484375 c 3
 1119.29296875 0.1484375 1119.296875 0.1484375 1119.296875 65.1484375 c 0
 1119.296875 349.1484375 l 1027
1248.29394531 412.1484375 m 0
 1248.9296875 412.1484375 1249.66015625 412.1484375 1250.296875 412.1484375 c 3
 1270.25195312 412.1484375 1279.15625 412.1484375 1279.15625 412.1484375 c 1025
2868.45117188 742.296875 m 1
 2868.45117188 439.1484375 l 1025
2126.296875 742.296875 m 1
 2126.296875 697.1484375 l 1
 2127.71386719 475.344726562 l 3
 2127.71386719 412.434570312 2188.00292969 412.1484375 2254.28808594 412.1484375 c 0
 2254.89648438 412.1484375 2255.50585938 412.1484375 2256.11621094 412.1484375 c 3
 2505.11621094 412.1484375 2735.48046875 412.1484375 2736.11621094 412.1484375 c 3
 2797.11621094 412.1484375 2867.5234375 411.1484375 2867.5234375 348.952148438 c 0
 2867.5234375 238.147460938 2867.75585938 65.12890625 2867.75585938 65.12890625 c 3
 2867.75585938 0.3623046875 2867.15722656 0.1484375 2807.31835938 0.1484375 c 0
 2806.91992188 0.1484375 2806.51953125 0.1484375 2806.11621094 0.1484375 c 3
 2805.43847656 0.1484375 2193.68457031 0.1484375 2193.11621094 0.1484375 c 3
 2130.11621094 0.1484375 2127.45117188 0.1484375 2127.45117188 65.5087890625 c 0
 2127.71386719 348.952148438 l 3
 2127.71386719 411.862304688 2186.04003906 412.1484375 2255.20703125 412.1484375 c 0
 2255.84277344 412.1484375 2256.47851562 412.1484375 2257.11621094 412.1484375 c 3
 2277.07128906 412.1484375 2285.97558594 412.1484375 2285.97558594 412.1484375 c 1025
3866.04394531 742.296875 m 1
 3866.04394531 439.1484375 l 1025
3123.88964844 742.296875 m 1
 3123.88964844 618.1484375 l 1
 3125.30664062 576.294921875 l 1
 3131.38476562 412.1484375 3132.49511719 412.1484375 3365.88964844 412.1484375 c 2
 3587.98144531 412.1484375 l 2
 3821.37597656 412.1484375 3859.03808594 412.1484375 3865.11621094 248.001953125 c 1
 3866.28515625 216.416992188 3866.28515625 206.001953125 3866.28515625 206.001953125 c 2
 3866.28515625 206.1484375 l 2
 3866.28515625 206.1484375 3866.28515625 201.291015625 3865.34863281 171.1484375 c 1
 3860.03515625 0.1484375 3824.58007812 0.1484375 3587.98144531 0.1484375 c 2
 3402.44140625 0.1484375 l 2
 3165.3828125 0.1484375 3130.25 0.1484375 3125.04394531 172.1484375 c 1
 3124.13769531 202.07421875 3124.13769531 206.1484375 3124.13769531 206.1484375 c 2
 3124.13769531 206.001953125 l 2
 3124.13769531 206.001953125 3124.13769531 216.416992188 3125.30664062 248.001953125 c 1
 3131.38476562 412.1484375 3168.88964844 412.1484375 3402.44140625 412.1484375 c 10
 3422.88964844 412.1484375 l 1049
4122.5859375 206.001953125 m 2
 4122.5859375 206.001953125 4122.5859375 216.416992188 4123.75488281 248.001953125 c 1
 4129.83300781 412.1484375 4167.49511719 412.1484375 4400.88964844 412.1484375 c 2
 4586.4296875 412.1484375 l 2
 4819.82421875 412.1484375 4857.48632812 412.1484375 4863.56445312 248.001953125 c 1
 4864.73339844 216.416992188 4864.73339844 206.001953125 4864.73339844 206.001953125 c 2
 4864.73339844 206.1484375 l 2
 4864.73339844 206.1484375 4864.73339844 201.291015625 4863.796875 171.1484375 c 1
 4858.48339844 0.1484375 4823.02832031 0.1484375 4586.4296875 0.1484375 c 2
 4400.88964844 0.1484375 l 2
 4163.83105469 0.1484375 4128.69824219 0.1484375 4123.4921875 172.1484375 c 1
 4122.5859375 202.07421875 4122.5859375 206.1484375 4122.5859375 206.1484375 c 2
 4122.5859375 206.001953125 l 2
4864.4921875 742.296875 m 1
 4864.4921875 412.1484375 l 1025
4122.33789062 742.296875 m 1
 4122.33789062 412.1484375 l 1
 4771.72265625 412.1484375 l 1025
EndSplineSet
Fore
SplineSet
756.711914062 -57.1025390625 m 0xec
 204.711914062 -57.1025390625 204.711914062 -57.1025390625 204.711914062 -57.1025390625 c 2
 126.797851562 -57.1025390625 96.072265625 -57.1025390625 83.955078125 -42.662109375 c 2
 58.244140625 -12.0205078125 l 2
 50.3544921875 -2.6181640625 50.3916015625 12.9072265625 50.3544921875 38.5400390625 c 0
 50 281.540039062 50 281.540039062 50 281.540039062 c 1
 104.051757812 326.89453125 l 1
 97.658203125 330.2265625 92.15234375 334.413085938 87.7392578125 339.672851562 c 2
 62.02734375 370.314453125 l 2
 54.3681640625 379.443359375 50 391.803710938 50 408.540039062 c 2
 50 715.534179688 l 1
 149.5859375 799.096679688 l 1
 175.296875 768.454101562 l 1
 175.296875 461.459960938 l 2
 175.296875 453.78515625 176.215820312 447.03125 177.94921875 441.0859375 c 1
 202.168945312 428.473632812 239.107421875 428.108398438 277.5859375 428.108398438 c 0
 759.5859375 428.108398438 759.5859375 428.108398438 759.5859375 428.108398438 c 2
 760.962890625 428.108398438 762.32421875 428.1015625 763.672851562 428.08984375 c 2
 792 451.858398438 l 1
 792 715.540039062 l 1
 891.5859375 799.102539062 l 1
 917.296875 768.459960938 l 1
 917.296875 503.459960938 l 2
 917.296875 478.212890625 911.704101562 462.303710938 900.079101562 452.548828125 c 2
 851.377929688 411.684570312 l 1
 860.458007812 406.873046875 867.48828125 401.135742188 872.930664062 394.650390625 c 2
 898.641601562 364.008789062 l 2
 917.029296875 342.094726562 917.296875 311.631835938 917.296875 279.459960938 c 2
 917.296875 182.459960938 l 1
 817.711914062 98.8974609375 l 1
 792 129.540039062 l 1
 792 226.540039062 l 2
 792 250.948242188 791.845703125 274.374023438 783.740234375 293.828125 c 1
 764.303710938 306.399414062 733.748046875 313.903320312 685.711914062 313.903320312 c 2
 203.711914062 313.903320312 l 2
 194.095703125 313.903320312 184.576171875 313.926757812 175.327148438 314.157226562 c 1
 175.651367188 91.4599609375 l 2
 175.651367188 79.388671875 175.651367188 69.55859375 176.475585938 61.5537109375 c 1
 194.8515625 61.5537109375 225.950195312 57.1025390625 278.5859375 57.1025390625 c 2
 814.122070312 57.1025390625 l 1
 891.5859375 122.102539062 l 1
 917.296875 91.4599609375 l 1
 917.296875 57.0419921875 917.240234375 40.8486328125 908.161132812 33.2294921875 c 2
 808.575195312 -50.3330078125 l 2
 800.5078125 -57.1025390625 785.31640625 -57.1025390625 756.711914062 -57.1025390625 c 0xec
EndSplineSet
Ligature2: "'liga' Non-standard Ligatures lookup 0-2" O u
Ligature2: "'liga' Non-standard Ligatures lookup 0-2" O U
LCarets2: 1 610
EndChar

StartChar: Thorn
Encoding: 222 222 32
Width: 972
Flags: HW
HStem: -57.1025 21G<58.9301 99.5468> -57.1025 21G<58.9301 99.5468> 153.276 114.205<242.351 725.091> 475.182 114.205<242.351 797.188> 779.103 20G<125.751 166.367> 779.103 20G<125.751 166.367>
VStem: 50 125.297<26.46 153.276 211.217 475.182 533.122 715.54> 797.188 125.297<267.481 475.182>
AnchorPoint: "Attacha 4 Cedilla" 484 0 basechar 0
AnchorPoint: "Anchora 1" 483.795 975 basechar 0
LayerCount: 2
Back
SplineSet
205.413085938 210.37890625 m 5
 762.02734375 210.37890625 l 1029
205.413085938 532.284179688 m 5
 859.836914062 532.284179688 l 5
 859.836914062 210.37890625 l 1029
112.6484375 742 m 5
 112.6484375 0 l 1029
2509.42480469 451.368164062 m 1
 2509.42480469 248.005859375 l 1
 2560.40820312 290.786132812 l 1
 3023.32128906 290.786132812 l 1
 3023.32128906 451.368164062 l 1
 2509.42480469 451.368164062 l 1
2276.1328125 779.465820312 m 1
 2467.64355469 940.163085938 l 1
 2509.42480469 890.370117188 l 1
 2509.42480469 619.078125 l 1
 2560.40820312 661.858398438 l 1
 3214.83203125 661.858398438 l 1
 3256.61328125 612.065429688 l 1
 3256.61328125 240.993164062 l 1
 3065.10253906 80.2958984375 l 1
 3024.68945312 128.458007812 l 1
 2967.29296875 80.2958984375 l 1
 2509.42480469 80.2958984375 l 1
 2509.42480469 -37.3173828125 l 1
 2317.9140625 -198.014648438 l 1
 2276.1328125 -148.221679688 l 1
 2276.1328125 779.465820312 l 1
4640.37792969 210.37890625 m 1
 5196.9921875 210.37890625 l 1025
4640.37792969 532.284179688 m 1
 5294.80175781 532.284179688 l 1
 5294.80175781 210.37890625 l 1025
4547.61328125 742 m 1
 4547.61328125 0 l 1025
2486.37207031 185.541015625 m 1
 3042.98632812 185.541015625 l 1025
2486.37207031 556.61328125 m 1
 3140.79589844 556.61328125 l 1
 3140.79589844 185.541015625 l 1025
2393.60742188 834.91796875 m 1
 2393.60742188 -92.76953125 l 1025
EndSplineSet
Fore
SplineSet
50 715.540039062 m 1xbb
 149.5859375 799.102539062 l 1
 175.296875 768.459960938 l 1
 175.296875 533.122070312 l 1
 242.350585938 589.38671875 l 1
 896.774414062 589.38671875 l 1
 922.485351562 558.744140625 l 1
 922.485351562 236.838867188 l 1
 822.900390625 153.276367188 l 1
 797.188476562 183.918945312 l 1
 797.188476562 213.774414062 l 1
 725.090820312 153.276367188 l 1
 175.296875 153.276367188 l 1
 175.296875 26.4599609375 l 1
 75.7119140625 -57.1025390625 l 1
 50 -26.4599609375 l 1
 50 715.540039062 l 1xbb
175.296875 475.181640625 m 1
 175.296875 211.216796875 l 1
 242.350585938 267.481445312 l 1
 797.188476562 267.481445312 l 1
 797.188476562 475.181640625 l 1
 175.296875 475.181640625 l 1
EndSplineSet
AlternateSubs2: "'salt' Stylistic Alternatives lookup 0-1" Tbar
EndChar

StartChar: H
Encoding: 72 72 33
Width: 967
Flags: W
HStem: -57.1025 21G<58.9301 99.5468 801.083 841.7> -57.1025 21G<58.9301 99.5468 801.083 841.7> -57.1025 21G<58.9301 99.5468 801.083 841.7> -57.1025 21G<58.9301 99.5468 801.083 841.7> 313.972 114.205<242.355 725.096> 779.249 20G<125.751 166.367 867.904 908.52>
VStem: 50 125.297<26.46 313.972 371.908 715.687> 792.153 125.297<26.46 370.24 428.177 715.687>
AnchorPoint: "Attacha 2" 792 716 basechar 0
AnchorPoint: "Anchora 1" 484 935 basechar 0
AnchorPoint: "Attacha 4 Cedilla" 484 0 basechar 0
AnchorPoint: "Anchora 3" 484 -200 basechar 0
LayerCount: 2
Back
SplineSet
854.801757812 742.146484375 m 5
 854.801757812 0 l 1029
205.41796875 371.07421875 m 5
 762.032226562 371.07421875 l 1029
112.6484375 742.146484375 m 5
 112.6484375 0 l 1029
EndSplineSet
Fore
SplineSet
50 715.686523438 m 1x8f
 149.5859375 799.249023438 l 1
 175.296875 768.606445312 l 1
 175.296875 371.908203125 l 1
 242.35546875 428.176757812 l 1
 792.153320312 428.176757812 l 1
 792.153320312 715.686523438 l 1
 891.739257812 799.249023438 l 1
 917.450195312 768.606445312 l 1
 917.450195312 26.4599609375 l 1
 817.865234375 -57.1025390625 l 1
 792.153320312 -26.4599609375 l 1
 792.153320312 370.240234375 l 1
 725.095703125 313.971679688 l 1
 175.296875 313.971679688 l 1
 175.296875 26.4599609375 l 1
 75.7119140625 -57.1025390625 l 1
 50 -26.4599609375 l 1
 50 715.686523438 l 1x8f
539.555664062 -57.1025390625 m 1028x1f
EndSplineSet
EndChar

StartChar: I
Encoding: 73 73 34
Width: 967
Flags: WO
HStem: -57.1025 114.205<149.586 427.656 471.187 817.858> 685.044 114.205<149.586 488.674 541.232 817.858>
VStem: 419.931 125.297<119.229 627.362>
AnchorPoint: "Attacha 2" 792 716 basechar 0
AnchorPoint: "Anchora 1" 484 935 basechar 0
AnchorPoint: "Attacha 4 Cedilla" 484 0 basechar 0
AnchorPoint: "Anchora 3" 484 -200 basechar 0
LayerCount: 2
Back
SplineSet
112.6484375 0 m 5
 854.794921875 0 l 1029
482.579101562 653.822265625 m 5
 482.579101562 92.76953125 l 1029
112.6484375 742.146484375 m 5
 854.794921875 742.146484375 l 1029
EndSplineSet
Fore
SplineSet
75.7119140625 685.043945312 m 1
 50 715.686523438 l 1
 149.5859375 799.249023438 l 1
 891.732421875 799.249023438 l 1
 917.443359375 768.606445312 l 1
 817.858398438 685.043945312 l 1
 541.232421875 685.043945312 l 1
 545.227539062 680.282226562 l 1
 545.227539062 119.229492188 l 1
 471.186523438 57.1025390625 l 1
 891.732421875 57.1025390625 l 1
 917.443359375 26.4599609375 l 1
 817.858398438 -57.1025390625 l 1
 75.7119140625 -57.1025390625 l 1
 50 -26.4599609375 l 1
 149.5859375 57.1025390625 l 1
 427.65625 57.1025390625 l 1
 419.930664062 66.3095703125 l 1
 419.930664062 627.362304688 l 1
 488.673828125 685.043945312 l 1
 75.7119140625 685.043945312 l 1
539.555664062 -57.1025390625 m 1028
EndSplineSet
EndChar

StartChar: J
Encoding: 74 74 35
Width: 967
Flags: W
HStem: -57.1025 114.205<175.297 354.021> -57.1025 21G<430.002 470.619> -57.1025 21G<430.002 470.619> -57.1025 21G<430.002 470.619> 685.044 114.205<149.586 495.105 538.649 817.864>
VStem: 50 125.297<57.1025 159.08> 421.072 125.297<57.1025 622.924>
AnchorPoint: "Attacha 2" 792 716 basechar 0
AnchorPoint: "Anchora 1" 484 935 basechar 0
AnchorPoint: "Attacha 4 Cedilla" 484 0 basechar 0
AnchorPoint: "Anchora 3" 484 -200 basechar 0
LayerCount: 2
Back
SplineSet
483.720703125 649.383789062 m 5
 483.720703125 0 l 1029
112.6484375 185.540039062 m 5
 112.6484375 0 l 5
 390.95703125 0 l 1029
112.6484375 742.146484375 m 5
 854.80078125 742.146484375 l 1029
EndSplineSet
Fore
SplineSet
75.7119140625 685.043945312 m 1x8e
 50 715.686523438 l 1
 149.5859375 799.249023438 l 1
 891.73828125 799.249023438 l 1
 917.44921875 768.606445312 l 1
 817.864257812 685.043945312 l 1
 538.649414062 685.043945312 l 1
 546.369140625 675.84375 l 1
 546.369140625 26.4599609375 l 1
 446.784179688 -57.1025390625 l 1x4e
 421.072265625 -26.4599609375 l 1
 421.072265625 -0.8388671875 l 1
 354.020507812 -57.1025390625 l 1x8e
 75.7119140625 -57.1025390625 l 1x1e
 50 -26.4599609375 l 1
 50 159.080078125 l 1
 149.5859375 242.642578125 l 1
 175.296875 212 l 1
 175.296875 57.1025390625 l 1
 421.072265625 57.1025390625 l 1
 421.072265625 622.923828125 l 1
 495.10546875 685.043945312 l 1
 75.7119140625 685.043945312 l 1x8e
539.555664062 -57.1025390625 m 1028x1e
EndSplineSet
EndChar

StartChar: K
Encoding: 75 75 36
Width: 967
UnlinkRmOvrlpSave: 1
Flags: W
HStem: -57.1025 21G<58.9301 99.5468 801.077 841.693> -57.1025 21G<58.9301 99.5468 801.077 841.693> -57.1025 21G<58.9301 99.5468 801.077 841.693> -57.1025 21G<58.9301 99.5468 801.077 841.693> 313.972 114.205<242.355 393.879 523.879 621.934> 419 9.17676<393.879 523.879> 779.249 20G<125.751 166.367>
VStem: 50 125.297<26.46 313.972 371.908 715.687>
AnchorPoint: "Attacha 2" 792 716 basechar 0
AnchorPoint: "Anchora 1" 484 935 basechar 0
AnchorPoint: "Attacha 4 Cedilla" 484 0 basechar 0
AnchorPoint: "Anchora 3" 484 -200 basechar 0
LayerCount: 2
Back
SplineSet
762.025390625 742.146484375 m 5
 483.72265625 463.84375 l 1029
205.41796875 371.07421875 m 5
 669.26171875 371.07421875 l 5
 854.794921875 0 l 1029
112.6484375 742.146484375 m 5
 112.6484375 0 l 1029
EndSplineSet
Fore
SplineSet
50 715.686523438 m 1x8b
 149.5859375 799.249023438 l 1
 175.296875 768.606445312 l 1
 175.296875 371.908203125 l 1
 242.35546875 428.176757812 l 1x8b
 706.19921875 428.176757812 l 1x07
 731.91015625 397.534179688 l 1
 917.443359375 26.4599609375 l 1
 817.858398438 -57.1025390625 l 1
 792.146484375 -26.4599609375 l 1
 621.93359375 313.971679688 l 1
 175.296875 313.971679688 l 1
 175.296875 26.4599609375 l 1
 75.7119140625 -57.1025390625 l 1
 50 -26.4599609375 l 1
 50 715.686523438 l 1x8b
827.025390625 762.146484375 m 1
 827.025390625 722.146484375 l 1
 523.87890625 419 l 1
 393.87890625 419 l 1x07
 393.87890625 459 l 1
 697.025390625 762.146484375 l 1
 827.025390625 762.146484375 l 1
539.555664062 -57.1025390625 m 1028x13
EndSplineSet
EndChar

StartChar: L
Encoding: 76 76 37
Width: 967
Flags: W
HStem: -57.1025 114.205<175.297 817.858> 779.249 20G<125.751 166.367>
VStem: 50 125.297<57.1025 715.687>
AnchorPoint: "Attacha 2" 792 716 basechar 0
AnchorPoint: "Anchora 1" 484 935 basechar 0
AnchorPoint: "Attacha 4 Cedilla" 484 0 basechar 0
AnchorPoint: "Anchora 3" 484 -200 basechar 0
LayerCount: 2
Back
SplineSet
112.6484375 742.146484375 m 5
 112.6484375 0 l 5
 854.794921875 0 l 1029
EndSplineSet
Fore
SplineSet
175.296875 57.1025390625 m 1
 891.732421875 57.1025390625 l 1
 917.443359375 26.4599609375 l 1
 817.858398438 -57.1025390625 l 1
 75.7119140625 -57.1025390625 l 1
 50 -26.4599609375 l 1
 50 715.686523438 l 1
 149.5859375 799.249023438 l 1
 175.296875 768.606445312 l 1
 175.296875 57.1025390625 l 1
539.555664062 -57.1025390625 m 1028
EndSplineSet
EndChar

StartChar: M
Encoding: 77 77 38
Width: 967
Flags: W
HStem: -57.1025 21G<58.9301 99.5468 801.077 841.693> -57.1025 21G<58.9301 99.5468 801.077 841.693> -57.1025 21G<58.9301 99.5468 801.077 841.693> -57.1025 21G<58.9301 99.5468 801.077 841.693> 779.249 20G<125.751 166.367 867.897 908.514>
VStem: 50 125.297<26.46 585.46 650.223 715.687> 792.146 125.297<26.46 643.315 700.767 715.687>
AnchorPoint: "Attacha 2" 792 716 basechar 0
AnchorPoint: "Anchora 1" 484 935 basechar 0
AnchorPoint: "Attacha 4 Cedilla" 484 0 basechar 0
AnchorPoint: "Anchora 3" 484 -200 basechar 0
LayerCount: 2
Back
SplineSet
205.412109375 649.383789062 m 5
 483.72265625 371.07421875 l 5
 762.025390625 649.383789062 l 1029
854.794921875 742.146484375 m 5
 854.794921875 0 l 1029
112.6484375 742.146484375 m 5
 112.6484375 0 l 1029
EndSplineSet
Fore
SplineSet
50 715.686523438 m 1x8e
 149.5859375 799.249023438 l 1
 175.296875 768.606445312 l 1
 175.296875 650.22265625 l 1
 242.349609375 706.486328125 l 1
 512.647460938 436.189453125 l 1
 699.376953125 622.923828125 l 1
 792.146484375 700.766601562 l 1
 792.146484375 715.686523438 l 1
 891.732421875 799.249023438 l 1
 917.443359375 768.606445312 l 1
 917.443359375 26.4599609375 l 1
 817.858398438 -57.1025390625 l 1
 792.146484375 -26.4599609375 l 1
 792.146484375 643.315429688 l 1
 546.37109375 397.534179688 l 1
 446.786132812 313.971679688 l 1
 175.296875 585.459960938 l 1
 175.296875 26.4599609375 l 1
 75.7119140625 -57.1025390625 l 1
 50 -26.4599609375 l 1
 50 715.686523438 l 1x8e
539.555664062 -57.1025390625 m 1028x1e
EndSplineSet
EndChar

StartChar: N
Encoding: 78 78 39
Width: 967
Flags: W
HStem: -57.1025 21G<58.9301 99.5468 801.084 841.701> -57.1025 21G<58.9301 99.5468 801.084 841.701> -57.1025 21G<58.9301 99.5468 801.084 841.701> -57.1025 21G<58.9301 99.5468 801.084 841.701> 779.249 20G<125.751 166.367 867.905 908.521>
VStem: 50 125.297<26.46 585.466 650.218 715.687> 792.154 125.297<26.46 91.9355 156.688 715.687>
AnchorPoint: "Attacha 2" 792 716 basechar 0
AnchorPoint: "Anchora 1" 484 935 basechar 0
AnchorPoint: "Attacha 4 Cedilla" 484 0 basechar 0
AnchorPoint: "Anchora 3" 484 -200 basechar 0
LayerCount: 2
Back
SplineSet
854.802734375 742.146484375 m 5
 854.802734375 0 l 1029
205.41796875 649.383789062 m 5
 762.033203125 92.76953125 l 1029
112.6484375 742.146484375 m 5
 112.6484375 0 l 1029
EndSplineSet
Fore
SplineSet
50 715.686523438 m 1x8e
 149.5859375 799.249023438 l 1
 175.296875 768.606445312 l 1
 175.296875 650.217773438 l 1
 242.35546875 706.486328125 l 1
 792.154296875 156.6875 l 1
 792.154296875 715.686523438 l 1
 891.740234375 799.249023438 l 1
 917.451171875 768.606445312 l 1
 917.451171875 26.4599609375 l 1
 817.866210938 -57.1025390625 l 1
 792.154296875 -26.4599609375 l 1
 792.154296875 91.935546875 l 1
 725.096679688 35.6669921875 l 1
 175.296875 585.465820312 l 1
 175.296875 26.4599609375 l 1
 75.7119140625 -57.1025390625 l 1
 50 -26.4599609375 l 1
 50 715.686523438 l 1x8e
539.555664062 -57.1025390625 m 1028x1e
EndSplineSet
EndChar

StartChar: O
Encoding: 79 79 40
Width: 967
Flags: W
HStem: -57.1025 114.205<203.591 765.17> 685.044 114.205<202.275 763.854>
VStem: 50 125.297<85.2115 662.517> 792.147 125.297<79.6299 656.935>
AnchorPoint: "Anchora 3" 484 -200 basechar 0
AnchorPoint: "Attacha 4 Cedilla" 484 0 basechar 0
AnchorPoint: "Anchora 1" 484 935 basechar 0
AnchorPoint: "Attacha 2" 792 716 basechar 0
LayerCount: 2
Back
SplineSet
112.6484375 463.84375 m 6
 112.6484375 742.146484375 112.6484375 742.146484375 390.952148438 742.146484375 c 6
 576.4921875 742.146484375 l 6
 854.795898438 742.146484375 854.795898438 742.146484375 854.795898438 463.84375 c 6
 854.795898438 278.302734375 l 6
 854.795898438 0 854.795898438 0 576.4921875 0 c 6
 390.952148438 0 l 6
 112.6484375 0 112.6484375 0 112.6484375 278.302734375 c 6
 112.6484375 463.84375 l 6
EndSplineSet
Fore
SplineSet
792.146484375 685.043945312 m 1025
28.400390625 408.391601562 m 1026
50 437.383789062 m 2
 50 582.633789062 50 652.075195312 89.5654296875 685.274414062 c 2
 189.151367188 768.836914062 l 2
 225.393554688 799.249023438 294.8359375 799.249023438 427.889648438 799.249023438 c 0
 613.4296875 799.249023438 613.4296875 799.249023438 613.4296875 799.249023438 c 2
 758.680664062 799.249023438 828.123046875 799.249023438 861.322265625 759.68359375 c 2
 887.033203125 729.041015625 l 2
 917.444335938 692.798828125 917.444335938 623.356445312 917.444335938 490.303710938 c 2
 917.444335938 304.762695312 l 2
 917.444335938 159.512695312 917.444335938 90.0712890625 877.87890625 56.8720703125 c 2
 778.293945312 -26.6904296875 l 2
 742.05078125 -57.1025390625 672.608398438 -57.1025390625 539.555664062 -57.1025390625 c 4
 354.015625 -57.1025390625 354.015625 -57.1025390625 354.015625 -57.1025390625 c 2
 208.764648438 -57.1025390625 139.322265625 -57.1025390625 106.123046875 -17.537109375 c 2
 80.4111328125 13.10546875 l 2
 50 49.34765625 50 118.790039062 50 251.842773438 c 0
 50 437.383789062 50 437.383789062 50 437.383789062 c 2
175.296875 490.303710938 m 2
 175.296875 304.762695312 l 2
 175.296875 190.383789062 194.6171875 123.012695312 194.6171875 83.3310546875 c 1
 232.224609375 57.1025390625 301.239257812 57.1025390625 427.889648438 57.1025390625 c 2
 613.4296875 57.1025390625 l 2
 688.502929688 57.1025390625 743.32421875 62.564453125 783.358398438 62.564453125 c 1
 792.147460938 103.7109375 792.147460938 163.873046875 792.147460938 251.842773438 c 2
 792.147460938 437.383789062 l 2
 792.147460938 551.762695312 772.827148438 619.133789062 772.827148438 658.815429688 c 1
 735.219726562 685.043945312 666.206054688 685.043945312 539.555664062 685.043945312 c 2
 354.015625 685.043945312 l 2
 278.942382812 685.043945312 224.120117188 679.58203125 184.086914062 679.58203125 c 1
 175.296875 638.435546875 175.296875 578.2734375 175.296875 490.303710938 c 2
539.555664062 -57.1025390625 m 1028
EndSplineSet
EndChar

StartChar: P
Encoding: 80 80 41
Width: 967
Flags: W
HStem: -57.1025 21G<58.9301 99.5468> -57.1025 21G<58.9301 99.5468> -57.1025 21G<58.9301 99.5468> -57.1025 21G<58.9301 99.5468> 221.2 114.205<242.355 725.095> 685.044 114.205<242.355 792.152>
VStem: 50 125.297<26.46 221.2 279.137 685.044> 792.152 125.297<335.405 685.044>
AnchorPoint: "Attacha 2" 792 716 basechar 0
AnchorPoint: "Anchora 1" 484 935 basechar 0
AnchorPoint: "Attacha 4 Cedilla" 484 0 basechar 0
AnchorPoint: "Anchora 3" 484 -200 basechar 0
LayerCount: 2
Back
SplineSet
205.41796875 278.302734375 m 5
 762.03125 278.302734375 l 1029
205.41796875 742.146484375 m 5
 854.80078125 742.146484375 l 5
 854.80078125 278.302734375 l 1029
112.6484375 742.146484375 m 5
 112.6484375 0 l 1029
EndSplineSet
Fore
SplineSet
50 715.686523438 m 1x8f
 149.5859375 799.249023438 l 1
 175.296875 768.606445312 l 1
 175.296875 742.98046875 l 1
 242.35546875 799.249023438 l 1
 891.73828125 799.249023438 l 1
 917.44921875 768.606445312 l 1
 917.44921875 304.762695312 l 1
 817.864257812 221.200195312 l 1
 792.15234375 251.842773438 l 1
 792.15234375 277.46875 l 1
 725.094726562 221.200195312 l 1
 175.296875 221.200195312 l 1
 175.296875 26.4599609375 l 1
 75.7119140625 -57.1025390625 l 1
 50 -26.4599609375 l 1
 50 715.686523438 l 1x8f
175.296875 685.043945312 m 1
 175.296875 279.13671875 l 1
 242.35546875 335.405273438 l 1
 792.15234375 335.405273438 l 1
 792.15234375 685.043945312 l 1
 175.296875 685.043945312 l 1
539.555664062 -57.1025390625 m 1028x1f
EndSplineSet
EndChar

StartChar: Q
Encoding: 81 81 42
Width: 967
Flags: W
HStem: 35.667 114.205<175.297 421.074 546.371 799.874> 685.044 114.205<242.355 792.147>
VStem: 50 125.297<149.872 685.044> 421.074 125.297<-66.3096 35.667 149.872 344.614> 792.147 125.297<212 685.044>
AnchorPoint: "Attacha 2" 792 716 basechar 0
AnchorPoint: "Anchora 1" 484 935 basechar 0
AnchorPoint: "Attacha 4 Cedilla" 484 0 basechar 0
AnchorPoint: "Anchora 3" 484 -200 basechar 0
LayerCount: 2
Back
SplineSet
483.72265625 371.07421875 m 5
 483.72265625 -92.76953125 l 1029
205.41796875 742.146484375 m 5
 854.795898438 742.146484375 l 5
 854.795898438 185.540039062 l 1029
112.6484375 742.146484375 m 5
 112.6484375 92.76953125 l 5
 854.795898438 92.76953125 l 1029
EndSplineSet
Fore
SplineSet
421.07421875 344.614257812 m 1
 520.66015625 428.176757812 l 1
 546.37109375 397.534179688 l 1
 546.37109375 149.872070312 l 1
 799.874023438 149.872070312 l 1
 792.147460938 159.080078125 l 1
 792.147460938 685.043945312 l 1
 175.296875 685.043945312 l 1
 175.296875 149.872070312 l 1
 421.07421875 149.872070312 l 1
 421.07421875 344.614257812 l 1
843.40234375 149.872070312 m 1
 891.733398438 149.872070312 l 1
 917.444335938 119.229492188 l 1
 817.859375 35.6669921875 l 1
 546.37109375 35.6669921875 l 1
 546.37109375 -66.3095703125 l 1
 446.786132812 -149.872070312 l 1
 421.07421875 -119.229492188 l 1
 421.07421875 35.6669921875 l 1
 75.7119140625 35.6669921875 l 1
 50 66.3095703125 l 1
 50 715.686523438 l 1
 149.5859375 799.249023438 l 1
 175.296875 768.606445312 l 1
 175.296875 742.98046875 l 1
 242.35546875 799.249023438 l 1
 891.733398438 799.249023438 l 1
 917.444335938 768.606445312 l 1
 917.444335938 212 l 1
 843.40234375 149.872070312 l 1
539.555664062 -57.1025390625 m 1028
EndSplineSet
EndChar

StartChar: R
Encoding: 82 82 43
Width: 967
Flags: W
HStem: -57.1025 21G<58.9301 99.5468 797.865 841.7> -57.1025 21G<58.9301 99.5468 797.865 841.7> -57.1025 21G<58.9301 99.5468 797.865 841.7> -57.1025 21G<58.9301 99.5468 797.865 841.7> 313.972 114.205<242.355 587.887 634.862 725.096> 685.044 114.205<242.355 792.153>
VStem: 50 125.297<26.46 313.972 371.908 685.044> 792.153 125.297<428.177 685.044>
AnchorPoint: "Attacha 2" 792 716 basechar 0
AnchorPoint: "Anchora 1" 484 935 basechar 0
AnchorPoint: "Attacha 4 Cedilla" 484 0 basechar 0
AnchorPoint: "Anchora 3" 484 -200 basechar 0
LayerCount: 2
Back
SplineSet
576.4921875 278.302734375 m 5
 854.801757812 0 l 1029
205.41796875 371.07421875 m 5
 762.032226562 371.07421875 l 1029
205.41796875 742.146484375 m 5
 854.801757812 742.146484375 l 5
 854.801757812 371.07421875 l 1029
112.6484375 742.146484375 m 5
 112.6484375 0 l 1029
EndSplineSet
Fore
SplineSet
50 715.686523438 m 1x8f
 149.5859375 799.249023438 l 1
 175.296875 768.606445312 l 1
 175.296875 742.98046875 l 1
 242.35546875 799.249023438 l 1
 891.739257812 799.249023438 l 1
 917.450195312 768.606445312 l 1
 917.450195312 397.534179688 l 1
 817.865234375 313.971679688 l 1
 792.153320312 344.614257812 l 1
 792.153320312 370.240234375 l 1
 725.095703125 313.971679688 l 1
 634.862304688 313.971679688 l 1
 891.739257812 57.1025390625 l 1
 917.450195312 26.4599609375 l 1
 817.865234375 -57.1025390625 l 1
 539.555664062 221.200195312 l 1
 513.84375 251.842773438 l 1
 587.88671875 313.971679688 l 1
 175.296875 313.971679688 l 1
 175.296875 26.4599609375 l 1
 75.7119140625 -57.1025390625 l 1
 50 -26.4599609375 l 1
 50 715.686523438 l 1x8f
175.296875 685.043945312 m 1
 175.296875 371.908203125 l 1
 242.35546875 428.176757812 l 1
 792.153320312 428.176757812 l 1
 792.153320312 685.043945312 l 1
 175.296875 685.043945312 l 1
539.555664062 -57.1025390625 m 1028x1f
EndSplineSet
EndChar

StartChar: S
Encoding: 83 83 44
Width: 967
Flags: W
HStem: -57.1025 114.205<149.586 725.095> -57.1025 21G<801.077 841.693> -57.1025 21G<801.077 841.693> -57.1025 21G<801.077 841.693> 313.972 114.205<175.297 792.146> 685.046 114.205<167.571 817.858>
VStem: 50 125.297<428.177 622.919> 792.146 125.297<57.1025 313.972>
AnchorPoint: "Attacha 2" 792 716 basechar 0
AnchorPoint: "Anchora 1" 484 935 basechar 0
AnchorPoint: "Attacha 4 Cedilla" 484 0 basechar 0
AnchorPoint: "Anchora 3" 484 -200 basechar 0
LayerCount: 2
Back
SplineSet
112.6484375 0 m 1
 762.03125 0 l 1025
112.6484375 649.37890625 m 1
 113 371 l 1
 855 371 l 5
 854.794921875 0 l 1025
112.6484375 742.1484375 m 1
 854.794921875 742.1484375 l 1025
EndSplineSet
Fore
SplineSet
75.7119140625 685.045898438 m 1x8f
 50 715.688476562 l 1
 149.5859375 799.250976562 l 1
 891.732421875 799.250976562 l 1
 917.443359375 768.608398438 l 1
 817.858398438 685.045898438 l 1
 167.571289062 685.045898438 l 1
 175.296875 675.838867188 l 1
 175.296875 428.176757812 l 1
 891.732421875 428.176757812 l 1
 917.443359375 397.534179688 l 1
 917.443359375 26.4599609375 l 1
 817.858398438 -57.1025390625 l 1x4f
 792.146484375 -26.4599609375 l 1
 792.146484375 -0.8388671875 l 1
 725.094726562 -57.1025390625 l 1x8f
 75.7119140625 -57.1025390625 l 1x1f
 50 -26.4599609375 l 1
 149.5859375 57.1025390625 l 1
 792.146484375 57.1025390625 l 1
 792.146484375 313.971679688 l 1
 75.7119140625 313.971679688 l 1
 50 344.614257812 l 1
 50 622.918945312 l 1
 124.041015625 685.045898438 l 1
 75.7119140625 685.045898438 l 1x8f
539.555664062 -57.1025390625 m 1028x8f
EndSplineSet
EndChar

StartChar: glyph48
Encoding: 425 425 45
Width: 969
Flags: HW
HStem: -57.1025 114.205<175.297 704.468 753.174 819.712> 684.906 114.208<149.586 219.519 263.817 794>
VStem: 50 125.297<57.1025 268.699> 794 125.297<490.46 684.898>
AnchorPoint: "Attacha 4 Cedilla" 484 0 basechar 0
LayerCount: 2
Back
SplineSet
158.6484375 316.333984375 m 1053
158.6484375 316.333984375 m 5
 112.6484375 278 l 21
 112.6484375 0 l 5
 856.6484375 0 l 1029
856.6484375 464 m 1053
206.6484375 648 m 5
 763.6484375 92 l 1029
112.6484375 742.01171875 m 5
 856.6484375 742 l 5
 856.6484375 464 l 5
 810.6484375 425.666015625 l 1053
EndSplineSet
Fore
SplineSet
794 437.8046875 m 1
 794 684.8984375 l 1
 617.272460938 684.8984375 440.544921875 684.90625 263.817382812 684.90625 c 1
 800.5859375 149.102539062 l 1
 826.296875 118.459960938 l 1
 753.173828125 57.1025390625 l 1
 893.5859375 57.1025390625 l 1
 919.296875 26.4599609375 l 1
 819.711914062 -57.1025390625 l 1
 75.7119140625 -57.1025390625 l 1
 50 -26.4599609375 l 1
 50 251.540039062 l 1
 98.5009765625 292.200195312 146.884765625 332.9765625 195.5859375 373.436523438 c 1
 221.296875 342.793945312 l 1
 175.296875 304.1953125 l 1
 175.296875 57.1025390625 l 1
 704.467773438 57.1025390625 l 1
 169.711914062 590.897460938 l 1
 144 621.540039062 l 1
 219.518554688 684.907226562 l 1
 171.583007812 684.907226562 123.647460938 684.909179688 75.7119140625 684.909179688 c 1
 50 715.551757812 l 1
 149.5859375 799.114257812 l 1
 893.5859375 799.102539062 l 1
 919.296875 768.459960938 l 1
 919.296875 490.459960938 l 1
 883.526367188 460.4453125 l 2
 868.331054688 447.688476562 853.137695312 434.930664062 837.930664062 422.185546875 c 2
 819.711914062 406.897460938 l 1
 819.696289062 406.915039062 l 1
 804.390625 394.109375 789.06640625 381.321289062 773.711914062 368.563476562 c 1
 748 399.206054688 l 1
 794 437.8046875 l 1
EndSplineSet
EndChar

StartChar: T
Encoding: 84 84 46
Width: 967
Flags: W
HStem: -57.1025 21G<430.002 470.619> -57.1025 21G<430.002 470.619> -57.1025 21G<430.002 470.619> -57.1025 21G<430.002 470.619> 685.046 114.205<149.586 495.113 538.644 817.864>
VStem: 421.072 125.297<26.46 622.919>
AnchorPoint: "Attacha 2" 792 716 basechar 0
AnchorPoint: "Anchora 1" 484 935 basechar 0
AnchorPoint: "Attacha 4 Cedilla" 484 0 basechar 0
AnchorPoint: "Anchora 3" 484 -200 basechar 0
LayerCount: 2
Back
SplineSet
483.720703125 649.37890625 m 5
 483.720703125 0 l 1029
112.6484375 742.1484375 m 5
 854.80078125 742.1484375 l 1029
EndSplineSet
Fore
SplineSet
75.7119140625 685.045898438 m 1x8c
 50 715.688476562 l 1
 149.5859375 799.250976562 l 1
 891.73828125 799.250976562 l 1
 917.44921875 768.608398438 l 1
 817.864257812 685.045898438 l 1
 538.643554688 685.045898438 l 1
 546.369140625 675.838867188 l 1
 546.369140625 26.4599609375 l 1
 446.784179688 -57.1025390625 l 1
 421.072265625 -26.4599609375 l 1
 421.072265625 622.918945312 l 1
 495.11328125 685.045898438 l 1
 75.7119140625 685.045898438 l 1x8c
539.555664062 -57.1025390625 m 1028x1c
EndSplineSet
EndChar

StartChar: glyph50
Encoding: 1063 1063 47
Width: 967
Flags: HW
HStem: -57.1025 21G<801.077 841.693> -57.1025 21G<801.077 841.693> 313.903 114.205<175.297 725.089> 779.251 20G<125.751 166.367 867.897 908.514> 779.251 20G<125.751 166.367 867.897 908.514>
VStem: 50 125.297<428.108 715.688> 792.146 125.297<26.46 370.172 428.108 715.688>
AnchorPoint: "Attacha 4 Cedilla" 484 0 basechar 0
LayerCount: 2
Back
SplineSet
854.794921875 742.1484375 m 5
 854.794921875 0 l 1029
112.6484375 742.1484375 m 5
 112.6484375 278.3046875 l 5
 762.025390625 278.3046875 l 1029
EndSplineSet
Fore
SplineSet
175.296875 428.108398438 m 1xb6
 792.146484375 428.108398438 l 1
 792.146484375 715.688476562 l 1
 891.732421875 799.250976562 l 1
 917.443359375 768.608398438 l 1
 917.443359375 26.4599609375 l 1
 817.858398438 -57.1025390625 l 1
 792.146484375 -26.4599609375 l 1
 792.146484375 370.171875 l 1
 725.088867188 313.903320312 l 1
 75.7119140625 313.903320312 l 1
 50 344.545898438 l 1
 50 715.688476562 l 1
 149.5859375 799.250976562 l 1
 175.296875 768.608398438 l 1
 175.296875 428.108398438 l 1xb6
EndSplineSet
EndChar

StartChar: U
Encoding: 85 85 48
Width: 967
Flags: W
HStem: -57.1025 114.103<175 725.097> -57.1025 21G<801.084 841.701> -57.1025 21G<801.084 841.701> -57.1025 21G<801.084 841.701> 779 20.251G<125.751 166.388 867.145 908.333>
VStem: 50 125<57 715.688> 792 125.451<57 716>
AnchorPoint: "Anchora 1" 484 935 basechar 0
AnchorPoint: "Attacha 4 Cedilla" 484 0 basechar 0
AnchorPoint: "Anchora 3" 484 -200 basechar 0
AnchorPoint: "Attacha 2" 792 716 basechar 0
LayerCount: 2
Back
SplineSet
855 643 m 5
 1017 778.000976562 l 29
 1017 898 l 1029
854.802734375 742.1484375 m 1
 854.802734375 0 l 1025
112.6484375 742.1484375 m 1
 112.6484375 0 l 1
 762.033203125 0 l 1025
EndSplineSet
Fore
SplineSet
792 716 m 1x8e
 891 799 l 1
 917 769 l 1
 917.451171875 26.4599609375 l 1
 817.866210938 -57.1025390625 l 1x4e
 792.154296875 -26.4599609375 l 1
 792.154296875 -0.833984375 l 1
 725.096679688 -57.1025390625 l 1x8e
 75.7119140625 -57.1025390625 l 1x1e
 50 -26.4599609375 l 1
 50 715.688476562 l 1
 149.5859375 799.250976562 l 1
 175 769 l 1
 175 57 l 1
 792 57 l 1
 792.000702523 713 l 0
 792.000468349 714 l 0
 792.000234174 715 l 0
 792 716 l 1x8e
539.555664062 -57.1025390625 m 1028x8e
EndSplineSet
EndChar

StartChar: V
Encoding: 86 86 49
Width: 967
Flags: W
HStem: -57.1025 21G<797.858 841.693> -57.1025 21G<797.858 841.693> -57.1025 21G<797.858 841.693> -57.1025 21G<797.858 841.693> 779.251 20G<125.751 169.586 867.897 908.514>
VStem: 792.146 125.297<211.995 715.688>
AnchorPoint: "Attacha 2" 792 716 basechar 0
AnchorPoint: "Anchora 1" 484 935 basechar 0
AnchorPoint: "Attacha 4 Cedilla" 484 0 basechar 0
AnchorPoint: "Anchora 3" 484 -200 basechar 0
LayerCount: 2
Back
SplineSet
854.794921875 742.1484375 m 5
 854.794921875 185.53515625 l 1029
112.6484375 742.1484375 m 5
 854.794921875 0 l 1029
EndSplineSet
Fore
SplineSet
75.7119140625 685.045898438 m 1x8c
 50 715.688476562 l 1
 149.5859375 799.250976562 l 1
 804.59375 144.241210938 l 1
 792.146484375 159.075195312 l 1
 792.146484375 715.688476562 l 1
 891.732421875 799.250976562 l 1
 917.443359375 768.608398438 l 1
 917.443359375 211.995117188 l 1
 819.241210938 129.59375 l 1
 891.732421875 57.1025390625 l 1
 917.443359375 26.4599609375 l 1
 817.858398438 -57.1025390625 l 1
 75.7119140625 685.045898438 l 1x8c
539.555664062 -57.1025390625 m 1028x1c
EndSplineSet
EndChar

StartChar: W
Encoding: 87 87 50
Width: 967
Flags: W
HStem: -57.1025 114.205<175.297 354.022 546.371 725.097> -57.1025 21G<801.084 841.701> -57.1025 21G<801.084 841.701> -57.1025 21G<801.084 841.701> 779.251 20G<125.751 166.367 867.905 908.521>
VStem: 50 125.297<57.1025 715.688> 421.074 125.297<57.1025 530.154> 792.154 125.297<57.1025 715.688>
AnchorPoint: "Attacha 2" 792 716 basechar 0
AnchorPoint: "Anchora 1" 484 935 basechar 0
AnchorPoint: "Attacha 4 Cedilla" 484 0 basechar 0
AnchorPoint: "Anchora 3" 484 -200 basechar 0
LayerCount: 2
Back
SplineSet
854.802734375 742.1484375 m 5
 854.802734375 0 l 1029
483.72265625 556.614257812 m 5
 483.72265625 0 l 5
 762.033203125 0 l 1029
112.6484375 742.1484375 m 5
 112.6484375 0 l 5
 390.958984375 0 l 1029
EndSplineSet
Fore
SplineSet
50 715.688476562 m 1x1f
 149.5859375 799.250976562 l 1
 175.296875 768.608398438 l 1
 175.296875 57.1025390625 l 1
 421.07421875 57.1025390625 l 1
 421.07421875 530.154296875 l 1
 520.66015625 613.716796875 l 1
 546.37109375 583.07421875 l 1
 546.37109375 57.1025390625 l 1
 792.154296875 57.1025390625 l 1x8f
 792.154296875 715.688476562 l 1
 891.740234375 799.250976562 l 1
 917.451171875 768.608398438 l 1
 917.451171875 26.4599609375 l 1
 817.866210938 -57.1025390625 l 1x4f
 792.154296875 -26.4599609375 l 1
 792.154296875 -0.833984375 l 1
 725.096679688 -57.1025390625 l 1x8f
 446.786132812 -57.1025390625 l 1x1f
 421.07421875 -26.4599609375 l 1
 421.07421875 -0.8388671875 l 1
 354.022460938 -57.1025390625 l 1x8f
 75.7119140625 -57.1025390625 l 1
 50 -26.4599609375 l 1
 50 715.688476562 l 1x1f
539.555664062 -57.1025390625 m 1028x1f
EndSplineSet
EndChar

StartChar: X
Encoding: 88 88 51
Width: 972
UnlinkRmOvrlpSave: 1
Flags: W
HStem: -57.1025 21G<803.434 844.05> -57.1025 21G<803.434 844.05> -57.1025 21G<803.434 844.05> -57.1025 21G<803.434 844.05> 313.972 114.205<177.648 794.504> 779.251 20G<128.102 168.719>
VStem: 52.3516 125.297<428.177 715.688> 794.504 125.297<26.46 313.972>
AnchorPoint: "Attacha 2" 792 716 basechar 0
AnchorPoint: "Anchora 1" 484 935 basechar 0
AnchorPoint: "Attacha 4 Cedilla" 484 0 basechar 0
AnchorPoint: "Anchora 3" 484 -200 basechar 0
LayerCount: 2
Back
SplineSet
857.15234375 742.1484375 m 5
 115 0 l 1029
115 742.1484375 m 5
 115 371.07421875 l 5
 857.15234375 371.07421875 l 5
 857.15234375 0 l 1029
EndSplineSet
Fore
SplineSet
177.6484375 428.176757812 m 1x8f
 894.08984375 428.176757812 l 1
 919.80078125 397.534179688 l 1
 919.80078125 26.4599609375 l 1
 820.21484375 -57.1025390625 l 1
 794.50390625 -26.4599609375 l 1
 794.50390625 313.971679688 l 1
 78.0625 313.971679688 l 1
 52.3515625 344.614257812 l 1
 52.3515625 715.688476562 l 1
 151.9375 799.250976562 l 1
 177.6484375 768.608398438 l 1
 177.6484375 428.176757812 l 1x8f
922.15234375 762.1484375 m 1
 922.15234375 722.1484375 l 1
 180 -20 l 1
 50 -20 l 1
 50 20 l 1
 792.15234375 762.1484375 l 1
 922.15234375 762.1484375 l 1
539.555664062 -57.1025390625 m 1028x1f
EndSplineSet
EndChar

StartChar: Y
Encoding: 89 89 52
Width: 972
UnlinkRmOvrlpSave: 1
Flags: W
HStem: 779.251 20G<128.102 168.719>
VStem: 52.3516 125.297<428.177 715.688>
AnchorPoint: "Attacha 2" 792 716 basechar 0
AnchorPoint: "Anchora 1" 484 935 basechar 0
AnchorPoint: "Attacha 4 Cedilla" 484 0 basechar 0
AnchorPoint: "Anchora 3" 484 -200 basechar 0
LayerCount: 2
Back
SplineSet
857.15234375 742.1484375 m 5
 115 0 l 1029
115 742.1484375 m 5
 115 371.07421875 l 5
 484.978515625 371.07421875 l 1029
-144.021484375 742.1484375 m 1
 -886.168945312 0 l 1025
-886.168945312 742.1484375 m 1
 -607.865234375 463.84375 l 1025
EndSplineSet
Fore
SplineSet
177.6484375 428.176757812 m 1
 521.916015625 428.176757812 l 1
 547.626953125 397.534179688 l 1
 448.041015625 313.971679688 l 1
 78.0625 313.971679688 l 1
 52.3515625 344.614257812 l 1
 52.3515625 715.688476562 l 1
 151.9375 799.250976562 l 1
 177.6484375 768.608398438 l 1
 177.6484375 428.176757812 l 1
922.15234375 762.1484375 m 1
 922.15234375 722.1484375 l 1
 180 -20 l 1
 50 -20 l 1
 50 20 l 1
 792.15234375 762.1484375 l 1
 922.15234375 762.1484375 l 1
539.555664062 -57.1025390625 m 1028
EndSplineSet
EndChar

StartChar: Z
Encoding: 90 90 53
Width: 969
UnlinkRmOvrlpSave: 1
Flags: W
HStem: -57.1025 114.205<180 818.912> -18.6973 75.7998<150.635 180> 685.046 114.205<150.635 789> 685.046 75.2529<789 818.912>
AnchorPoint: "Attacha 2" 792 716 basechar 0
AnchorPoint: "Anchora 1" 484 935 basechar 0
AnchorPoint: "Attacha 4 Cedilla" 484 0 basechar 0
AnchorPoint: "Anchora 3" 484 -200 basechar 0
LayerCount: 2
Back
SplineSet
113.697265625 742.1484375 m 5
 855.849609375 742.1484375 l 5
 113.697265625 0 l 5
 855.849609375 0 l 1029
EndSplineSet
Fore
SplineSet
789 760.298828125 m 1x50
 919 760.298828125 l 1
 919 720.298828125 l 1
 180 -18.697265625 l 1
 50 -18.697265625 l 1
 50 21.302734375 l 1
 789 760.298828125 l 1x50
76.759765625 685.045898438 m 1
 51.048828125 715.688476562 l 1
 150.634765625 799.250976562 l 1
 892.787109375 799.250976562 l 1x20
 918.498046875 768.608398438 l 1
 818.912109375 685.045898438 l 1
 76.759765625 685.045898438 l 1
76.759765625 -57.1025390625 m 1x80
 51.048828125 -26.4599609375 l 1
 150.634765625 57.1025390625 l 1
 892.787109375 57.1025390625 l 1x40
 918.498046875 26.4599609375 l 1
 818.912109375 -57.1025390625 l 1
 76.759765625 -57.1025390625 l 1x80
539.555664062 -57.1025390625 m 1028x80
EndSplineSet
EndChar

StartChar: uni0232
Encoding: 562 562 54
Width: 972
UnlinkRmOvrlpSave: 1
Flags: H
HStem: 779.251 20G<128.102 168.719 128.102 168.719> 886.942 100.115<239.506 723.479>
VStem: 52.3516 125.297<428.177 715.688>
AnchorPoint: "Attacha 4 Cedilla" 484 0 basechar 0
LayerCount: 2
Back
SplineSet
836.403320312 649.37890625 m 5
 94.2548828125 0 l 1029
94.2548828125 649.37890625 m 5
 372.559570312 405.864257812 l 1029
187.01953125 834.91796875 m 5
 743.633789062 834.91796875 l 1029
EndSplineSet
Fore
Refer: 86 772 N 1 0 0 1 1005.8 -39 2
Refer: 52 89 N 1 0 0 1 0 0 3
EndChar

StartChar: a
Encoding: 97 97 58
Width: 967
Flags: W
HStem: -57.1025 21G<58.9301 99.5468 58.9301 99.5468 58.9301 99.5468 58.9301 99.5468 801.077 841.693 801.077 841.693 801.077 841.693 801.077 841.693> 313.972 114.205<242.355 725.095> 685.044 114.205<242.355 792.146>
VStem: 50 125.297<26.46 313.972 371.908 685.044> 792.146 125.297<26.46 370.235 428.177 685.044>
AnchorPoint: "Attacha 2" 792 716 basechar 0
AnchorPoint: "Anchora 1" 484 935 basechar 0
AnchorPoint: "Attacha 4 Cedilla" 484 0 basechar 0
AnchorPoint: "Anchora 3" 484 -200 basechar 0
LayerCount: 2
Fore
SplineSet
539.555664062 -57.1025390625 m 1028
EndSplineSet
Refer: 0 65 N 1 0 0 1 0 0 2
EndChar

StartChar: b
Encoding: 98 98 59
Width: 967
Flags: W
HStem: -57.1025 21G<58.9301 99.5468 58.9301 99.5468 58.9301 99.5468 801.082 841.699 801.082 841.699 801.082 841.699> -57.1025 114.205<242.355 725.095> 313.972 114.205<242.355 614.339 657.869 792.152> 685.044 114.205<242.355 606.613>
VStem: 50 125.297<26.46 313.972 371.908 685.044> 606.613 125.297<490.304 685.044> 792.152 125.297<57.1025 313.972>
AnchorPoint: "Attacha 2" 792 716 basechar 0
AnchorPoint: "Anchora 1" 484 935 basechar 0
AnchorPoint: "Attacha 4 Cedilla" 484 0 basechar 0
AnchorPoint: "Anchora 3" 484 -200 basechar 0
LayerCount: 2
Fore
SplineSet
539.555664062 -57.1025390625 m 1028x7e
EndSplineSet
Refer: 3 66 N 1 0 0 1 0 0 2
EndChar

StartChar: c
Encoding: 99 99 60
Width: 967
Flags: W
HStem: -57.1025 114.205<175.297 817.858> 685.044 114.205<167.576 817.858>
VStem: 50 125.297<57.1025 622.923>
AnchorPoint: "Attacha 2" 792 716 basechar 0
AnchorPoint: "Anchora 1" 484 935 basechar 0
AnchorPoint: "Attacha 4 Cedilla" 484 0 basechar 0
AnchorPoint: "Anchora 3" 484 -200 basechar 0
LayerCount: 2
Fore
SplineSet
539.555664062 -57.1025390625 m 1028
EndSplineSet
Refer: 4 67 N 1 0 0 1 0 0 2
EndChar

StartChar: d
Encoding: 100 100 61
Width: 967
Flags: W
HStem: -57.1025 21G<58.9301 99.5468 58.9301 99.5468 58.9301 99.5468> -57.1025 114.205<242.35 656.503> 685.044 114.205<242.35 632.319>
VStem: 50 125.297<26.46 685.044> 792.146 125.297<182.46 525.222>
AnchorPoint: "Attacha 2" 792 716 basechar 0
AnchorPoint: "Anchora 1" 484 935 basechar 0
AnchorPoint: "Attacha 4 Cedilla" 484 0 basechar 0
AnchorPoint: "Anchora 3" 484 -200 basechar 0
LayerCount: 2
Fore
SplineSet
539.555664062 -57.1025390625 m 1028x78
EndSplineSet
Refer: 5 68 N 1 0 0 1 0 0 2
EndChar

StartChar: e
Encoding: 101 101 62
Width: 967
Flags: W
HStem: -57.1025 114.205<175.297 817.866> 313.972 114.205<232.624 632.325> 685.044 114.205<167.576 817.866>
VStem: 50 125.297<57.1025 313.972 380.073 622.923>
AnchorPoint: "Attacha 2" 792 716 basechar 0
AnchorPoint: "Anchora 1" 484 935 basechar 0
AnchorPoint: "Attacha 4 Cedilla" 484 0 basechar 0
AnchorPoint: "Anchora 3" 484 -200 basechar 0
LayerCount: 2
Fore
SplineSet
539.555664062 -57.1025390625 m 1028
EndSplineSet
Refer: 7 69 N 1 0 0 1 0 0 2
EndChar

StartChar: f
Encoding: 102 102 63
Width: 967
Flags: W
HStem: -57.1025 21G<58.9301 99.5468 58.9301 99.5468 58.9301 99.5468 58.9301 99.5468> 313.972 114.205<242.355 632.325> 685.044 114.205<167.576 817.864>
VStem: 50 125.297<26.46 313.972 371.908 622.923>
AnchorPoint: "Attacha 2" 792 716 basechar 0
AnchorPoint: "Anchora 1" 484 935 basechar 0
AnchorPoint: "Attacha 4 Cedilla" 484 0 basechar 0
AnchorPoint: "Anchora 3" 484 -200 basechar 0
LayerCount: 2
Fore
SplineSet
539.555664062 -57.1025390625 m 1028
EndSplineSet
Refer: 20 70 N 1 0 0 1 0 0 2
EndChar

StartChar: g
Encoding: 103 103 64
Width: 967
Flags: W
HStem: -57.1025 114.205<175.297 799.878> 313.972 114.205<520.659 792.152> 685.044 114.205<167.576 817.864>
VStem: 50 125.297<57.1025 622.923> 792.152 125.297<119.229 313.972>
AnchorPoint: "Attacha 2" 792 716 basechar 0
AnchorPoint: "Anchora 1" 484 935 basechar 0
AnchorPoint: "Attacha 4 Cedilla" 484 0 basechar 0
AnchorPoint: "Anchora 3" 484 -200 basechar 0
LayerCount: 2
Fore
SplineSet
539.555664062 -57.1025390625 m 1028
EndSplineSet
Refer: 21 71 N 1 0 0 1 0 0 2
EndChar

StartChar: h
Encoding: 104 104 65
Width: 967
Flags: W
HStem: -57.1025 21G<58.9301 99.5468 58.9301 99.5468 58.9301 99.5468 58.9301 99.5468 801.083 841.7 801.083 841.7 801.083 841.7 801.083 841.7> 313.972 114.205<242.355 725.096> 779.249 20G<125.751 166.367 867.904 908.52>
VStem: 50 125.297<26.46 313.972 371.908 715.687> 792.153 125.297<26.46 370.24 428.177 715.687>
AnchorPoint: "Attacha 2" 792 716 basechar 0
AnchorPoint: "Anchora 1" 484 935 basechar 0
AnchorPoint: "Attacha 4 Cedilla" 484 0 basechar 0
AnchorPoint: "Anchora 3" 484 -200 basechar 0
LayerCount: 2
Fore
SplineSet
539.555664062 -57.1025390625 m 1028
EndSplineSet
Refer: 33 72 N 1 0 0 1 0 0 2
EndChar

StartChar: i
Encoding: 105 105 66
Width: 967
Flags: W
HStem: -57.1025 114.205<149.586 427.656 471.187 817.858> 685.044 114.205<149.586 488.674 541.232 817.858>
VStem: 419.931 125.297<119.229 627.362>
AnchorPoint: "Attacha 2" 792 716 basechar 0
AnchorPoint: "Anchora 1" 484 935 basechar 0
AnchorPoint: "Attacha 4 Cedilla" 484 0 basechar 0
AnchorPoint: "Anchora 3" 484 -200 basechar 0
LayerCount: 2
Fore
SplineSet
539.555664062 -57.1025390625 m 1028
EndSplineSet
Refer: 34 73 N 1 0 0 1 0 0 2
EndChar

StartChar: j
Encoding: 106 106 67
Width: 967
Flags: W
HStem: -57.1025 21G<430.002 470.619 430.002 470.619 430.002 470.619> -57.1025 114.205<175.297 354.021> 685.044 114.205<149.586 495.105 538.649 817.864>
VStem: 50 125.297<57.1025 159.08> 421.072 125.297<57.1025 622.924>
AnchorPoint: "Attacha 2" 792 716 basechar 0
AnchorPoint: "Anchora 1" 484 935 basechar 0
AnchorPoint: "Attacha 4 Cedilla" 484 0 basechar 0
AnchorPoint: "Anchora 3" 484 -200 basechar 0
LayerCount: 2
Fore
SplineSet
539.555664062 -57.1025390625 m 1028x78
EndSplineSet
Refer: 35 74 N 1 0 0 1 0 0 2
EndChar

StartChar: k
Encoding: 107 107 68
Width: 967
UnlinkRmOvrlpSave: 1
Flags: W
HStem: -57.1025 21G<58.9301 99.5468 58.9301 99.5468 58.9301 99.5468 58.9301 99.5468 801.077 841.693 801.077 841.693 801.077 841.693 801.077 841.693> 313.972 114.205<242.355 393.879 523.879 621.934> 419 9.17676<393.879 523.879> 779.249 20G<125.751 166.367>
VStem: 50 125.297<26.46 313.972 371.908 715.687>
AnchorPoint: "Attacha 2" 792 716 basechar 0
AnchorPoint: "Anchora 1" 484 935 basechar 0
AnchorPoint: "Attacha 4 Cedilla" 484 0 basechar 0
AnchorPoint: "Anchora 3" 484 -200 basechar 0
LayerCount: 2
Fore
SplineSet
539.555664062 -57.1025390625 m 1028x98
EndSplineSet
Refer: 36 75 N 1 0 0 1 0 0 2
EndChar

StartChar: l
Encoding: 108 108 69
Width: 967
Flags: W
HStem: -57.1025 114.205<175.297 817.858> 779.249 20G<125.751 166.367>
VStem: 50 125.297<57.1025 715.687>
AnchorPoint: "Attacha 2" 792 716 basechar 0
AnchorPoint: "Anchora 1" 484 935 basechar 0
AnchorPoint: "Attacha 4 Cedilla" 484 0 basechar 0
AnchorPoint: "Anchora 3" 484 -200 basechar 0
LayerCount: 2
Fore
SplineSet
539.555664062 -57.1025390625 m 1028
EndSplineSet
Refer: 37 76 N 1 0 0 1 0 0 2
EndChar

StartChar: m
Encoding: 109 109 70
Width: 967
Flags: W
HStem: -57.1025 21G<58.9301 99.5468 58.9301 99.5468 58.9301 99.5468 58.9301 99.5468 801.077 841.693 801.077 841.693 801.077 841.693 801.077 841.693> 779.249 20G<125.751 166.367 867.897 908.514>
VStem: 50 125.297<26.46 585.46 650.223 715.687> 792.146 125.297<26.46 643.315 700.767 715.687>
AnchorPoint: "Attacha 2" 792 716 basechar 0
AnchorPoint: "Anchora 1" 484 935 basechar 0
AnchorPoint: "Attacha 4 Cedilla" 484 0 basechar 0
AnchorPoint: "Anchora 3" 484 -200 basechar 0
LayerCount: 2
Fore
SplineSet
539.555664062 -57.1025390625 m 1028
EndSplineSet
Refer: 38 77 N 1 0 0 1 0 0 2
EndChar

StartChar: n
Encoding: 110 110 71
Width: 967
Flags: W
HStem: -57.1025 21G<58.9301 99.5468 58.9301 99.5468 58.9301 99.5468 58.9301 99.5468 801.084 841.701 801.084 841.701 801.084 841.701 801.084 841.701> 779.249 20G<125.751 166.367 867.905 908.521>
VStem: 50 125.297<26.46 585.466 650.218 715.687> 792.154 125.297<26.46 91.9355 156.688 715.687>
AnchorPoint: "Attacha 2" 792 716 basechar 0
AnchorPoint: "Anchora 1" 484 935 basechar 0
AnchorPoint: "Attacha 4 Cedilla" 484 0 basechar 0
AnchorPoint: "Anchora 3" 484 -200 basechar 0
LayerCount: 2
Fore
SplineSet
539.555664062 -57.1025390625 m 1028
EndSplineSet
Refer: 39 78 N 1 0 0 1 0 0 2
EndChar

StartChar: o
Encoding: 111 111 72
Width: 967
Flags: W
HStem: -57.1025 114.205<203.591 765.17> 685.044 114.205<202.275 763.854>
VStem: 50 125.297<85.2115 662.517> 792.147 125.297<79.6299 656.935>
AnchorPoint: "Anchora 1" 484 935 basechar 0
AnchorPoint: "Attacha 4 Cedilla" 484 0 basechar 0
AnchorPoint: "Anchora 3" 484 -200 basechar 0
AnchorPoint: "Attacha 2" 792 716 basechar 0
LayerCount: 2
Fore
SplineSet
539.555664062 -57.1025390625 m 1028
EndSplineSet
Refer: 40 79 N 1 0 0 1 0 0 2
EndChar

StartChar: p
Encoding: 112 112 73
Width: 967
Flags: W
HStem: -57.1025 21G<58.9301 99.5468 58.9301 99.5468 58.9301 99.5468 58.9301 99.5468> 221.2 114.205<242.355 725.095> 685.044 114.205<242.355 792.152>
VStem: 50 125.297<26.46 221.2 279.137 685.044> 792.152 125.297<335.405 685.044>
AnchorPoint: "Attacha 2" 792 716 basechar 0
AnchorPoint: "Anchora 1" 484 935 basechar 0
AnchorPoint: "Attacha 4 Cedilla" 484 0 basechar 0
AnchorPoint: "Anchora 3" 484 -200 basechar 0
LayerCount: 2
Fore
SplineSet
539.555664062 -57.1025390625 m 1028
EndSplineSet
Refer: 41 80 N 1 0 0 1 0 0 2
EndChar

StartChar: q
Encoding: 113 113 74
Width: 967
Flags: W
HStem: 35.667 114.205<175.297 421.074 546.371 799.874> 685.044 114.205<242.355 792.147>
VStem: 50 125.297<149.872 685.044> 421.074 125.297<-66.3096 35.667 149.872 344.614> 792.147 125.297<212 685.044>
AnchorPoint: "Attacha 2" 792 716 basechar 0
AnchorPoint: "Anchora 1" 484 935 basechar 0
AnchorPoint: "Attacha 4 Cedilla" 484 0 basechar 0
AnchorPoint: "Anchora 3" 484 -200 basechar 0
LayerCount: 2
Fore
SplineSet
539.555664062 -57.1025390625 m 1028
EndSplineSet
Refer: 42 81 N 1 0 0 1 0 0 2
EndChar

StartChar: r
Encoding: 114 114 75
Width: 967
Flags: W
HStem: -57.1025 21G<58.9301 99.5468 58.9301 99.5468 58.9301 99.5468 58.9301 99.5468 797.865 841.7 797.865 841.7 797.865 841.7 797.865 841.7> 313.972 114.205<242.355 587.887 634.862 725.096> 685.044 114.205<242.355 792.153>
VStem: 50 125.297<26.46 313.972 371.908 685.044> 792.153 125.297<428.177 685.044>
AnchorPoint: "Attacha 2" 792 716 basechar 0
AnchorPoint: "Anchora 1" 484 935 basechar 0
AnchorPoint: "Attacha 4 Cedilla" 484 0 basechar 0
AnchorPoint: "Anchora 3" 484 -200 basechar 0
LayerCount: 2
Fore
SplineSet
539.555664062 -57.1025390625 m 1028
EndSplineSet
Refer: 43 82 N 1 0 0 1 0 0 2
EndChar

StartChar: s
Encoding: 115 115 76
Width: 967
Flags: W
HStem: -57.1025 21G<801.077 841.693 801.077 841.693 801.077 841.693> -57.1025 114.205<149.586 725.095> 313.972 114.205<175.297 792.146> 685.046 114.205<167.571 817.858>
VStem: 50 125.297<428.177 622.919> 792.146 125.297<57.1025 313.972>
AnchorPoint: "Attacha 2" 792 716 basechar 0
AnchorPoint: "Anchora 1" 484 935 basechar 0
AnchorPoint: "Attacha 4 Cedilla" 484 0 basechar 0
AnchorPoint: "Anchora 3" 484 -200 basechar 0
LayerCount: 2
Fore
SplineSet
539.555664062 -57.1025390625 m 1028x7c
EndSplineSet
Refer: 44 83 N 1 0 0 1 0 0 2
EndChar

StartChar: t
Encoding: 116 116 77
Width: 967
Flags: W
HStem: -57.1025 21G<430.002 470.619 430.002 470.619 430.002 470.619 430.002 470.619> 685.046 114.205<149.586 495.113 538.644 817.864>
VStem: 421.072 125.297<26.46 622.919>
AnchorPoint: "Attacha 2" 792 716 basechar 0
AnchorPoint: "Anchora 1" 484 935 basechar 0
AnchorPoint: "Attacha 4 Cedilla" 484 0 basechar 0
AnchorPoint: "Anchora 3" 484 -200 basechar 0
LayerCount: 2
Fore
SplineSet
539.555664062 -57.1025390625 m 1028
EndSplineSet
Refer: 46 84 N 1 0 0 1 0 0 2
EndChar

StartChar: u
Encoding: 117 117 78
Width: 967
Flags: W
HStem: -57.1025 21G<801.084 841.701 801.084 841.701 801.084 841.701> -57.1025 114.103<175 725.097> 779 20.251G<125.751 166.388 867.145 908.333>
VStem: 50 125<57 715.688> 792 125.451<57 716>
AnchorPoint: "Anchora 1" 484 935 basechar 0
AnchorPoint: "Attacha 4 Cedilla" 484 0 basechar 0
AnchorPoint: "Anchora 3" 484 -200 basechar 0
AnchorPoint: "Attacha 2" 792 716 basechar 0
LayerCount: 2
Fore
SplineSet
539.555664062 -57.1025390625 m 1028x78
EndSplineSet
Refer: 48 85 N 1 0 0 1 0 0 2
EndChar

StartChar: v
Encoding: 118 118 79
Width: 967
Flags: W
HStem: -57.1025 21G<797.858 841.693 797.858 841.693 797.858 841.693 797.858 841.693> 779.251 20G<125.751 169.586 867.897 908.514>
VStem: 792.146 125.297<211.995 715.688>
AnchorPoint: "Attacha 2" 792 716 basechar 0
AnchorPoint: "Anchora 1" 484 935 basechar 0
AnchorPoint: "Attacha 4 Cedilla" 484 0 basechar 0
AnchorPoint: "Anchora 3" 484 -200 basechar 0
LayerCount: 2
Fore
SplineSet
539.555664062 -57.1025390625 m 1028
EndSplineSet
Refer: 49 86 N 1 0 0 1 0 0 2
EndChar

StartChar: w
Encoding: 119 119 80
Width: 967
Flags: W
HStem: -57.1025 21G<801.085 841.701 801.085 841.701 801.085 841.701> -57.1025 114.205<175.297 354.023 546.371 725.097> 779.251 20G<125.751 166.368 867.906 908.522>
VStem: 50.0004 125.297<57.1025 715.688> 421.075 125.297<57.1025 530.154> 792.155 125.297<57.1025 715.688>
AnchorPoint: "Attacha 2" 792 716 basechar 0
AnchorPoint: "Anchora 1" 484 935 basechar 0
AnchorPoint: "Attacha 4 Cedilla" 484 0 basechar 0
AnchorPoint: "Anchora 3" 484 -200 basechar 0
LayerCount: 2
Fore
SplineSet
539.555664062 -57.1025390625 m 1028x7c
EndSplineSet
Refer: 50 87 N 1 0 0 1 0.0004 0 2
EndChar

StartChar: x
Encoding: 120 120 81
Width: 972
UnlinkRmOvrlpSave: 1
Flags: W
HStem: -57.1025 21G<803.434 844.05 803.434 844.05 803.434 844.05 803.434 844.05> 313.972 114.205<177.648 794.504> 779.251 20G<128.102 168.719>
VStem: 52.3516 125.297<428.177 715.688> 794.504 125.297<26.46 313.972>
AnchorPoint: "Attacha 2" 792 716 basechar 0
AnchorPoint: "Anchora 1" 484 935 basechar 0
AnchorPoint: "Attacha 4 Cedilla" 484 0 basechar 0
AnchorPoint: "Anchora 3" 484 -200 basechar 0
LayerCount: 2
Fore
SplineSet
539.555664062 -57.1025390625 m 1028
EndSplineSet
Refer: 51 88 N 1 0 0 1 0 0 2
EndChar

StartChar: y
Encoding: 121 121 82
Width: 972
UnlinkRmOvrlpSave: 1
Flags: W
HStem: 779.251 20G<128.102 168.719>
VStem: 52.3516 125.297<428.177 715.688>
AnchorPoint: "Attacha 2" 792 716 basechar 0
AnchorPoint: "Anchora 1" 484 935 basechar 0
AnchorPoint: "Attacha 4 Cedilla" 484 0 basechar 0
AnchorPoint: "Anchora 3" 484 -200 basechar 0
LayerCount: 2
Fore
SplineSet
539.555664062 -57.1025390625 m 1028
EndSplineSet
Refer: 52 89 N 1 0 0 1 0 0 2
EndChar

StartChar: z
Encoding: 122 122 83
Width: 969
UnlinkRmOvrlpSave: 1
Flags: W
HStem: -57.1025 114.205<180 818.912> -18.6973 75.7998<150.635 180> 685.046 75.2529<789 818.912> 685.046 114.205<150.635 789>
AnchorPoint: "Attacha 2" 792 716 basechar 0
AnchorPoint: "Anchora 1" 484 935 basechar 0
AnchorPoint: "Attacha 4 Cedilla" 484 0 basechar 0
AnchorPoint: "Anchora 3" 484 -200 basechar 0
LayerCount: 2
Fore
SplineSet
539.555664062 -57.1025390625 m 1028x80
EndSplineSet
Refer: 53 90 N 1 0 0 1 0 0 2
EndChar

StartChar: Wmacron
Encoding: 1114112 -1 84
Width: 967
Flags: HW
HStem: -57.1025 21G<801.084 841.701> -57.1025 114.205<175.297 354.022 546.371 725.097> 779.251 20G<125.751 166.367 125.751 166.367 867.905 908.521 867.905 908.521> 925.942 100.115<280.269 764.241>
VStem: 50 125.297<57.1025 715.688> 421.074 125.297<57.1025 530.154> 792.154 125.297<57.1025 715.688>
AnchorPoint: "Anchora 1" 540.777 1095 basechar 0
LayerCount: 2
Back
SplineSet
847.486328125 649.37890625 m 1
 847.486328125 0 l 1025
476.412109375 463.84375 m 1
 476.412109375 0 l 1
 754.716796875 0 l 1025
105.33984375 649.37890625 m 1
 105.33984375 0 l 1
 383.642578125 0 l 1025
198.109375 834.91796875 m 1
 754.716796875 834.91796875 l 1025
EndSplineSet
Fore
Refer: 86 772 N 1 0 0 1 1046.56 0 2
Refer: 50 87 N 1 0 0 1 -1.75e-06 0 2
Ligature2: "'liga' Standard Ligatures lookup 0-1" W uni0304
LCarets2: 1 0
EndChar

StartChar: uni0304
Encoding: 772 772 86
Width: 0
GlyphClass: 4
Flags: HW
HStem: 925.942 100.115<-727.31 -243.337>
AnchorPoint: "Anchora 1" -484.016 924 mark 0
LayerCount: 2
Back
SplineSet
-802.615234375 976 m 1
 -246 976 l 1025
EndSplineSet
Fore
SplineSet
-800.952148438 875.942382812 m 1
 -820.235351562 898.923828125 l 1
 -728.309570312 976.057617188 l 1
 -171.694335938 976.057617188 l 1
 -152.411132812 953.076171875 l 1
 -244.336914062 875.942382812 l 1
 -800.952148438 875.942382812 l 1
EndSplineSet
EndChar

StartChar: uniA74E
Encoding: 42830 42830 93
Width: 967
Flags: W
HStem: -57.1025 114.205<175.788 420.774 596.586 791.839> 684.897 114.205<175.454 383.712 547.222 791.51>
VStem: 50 125.297<57.1651 684.307> 421.006 125.297<57.7921 684.815> 792 125.297<57.7052 684.847>
AnchorPoint: "Anchora 1" 484.648 975 basechar 0
LayerCount: 2
Back
SplineSet
420.6484375 742 m 4
 177.6484375 741.645507812 l 4
 112.6484375 741.645507812 112.6484375 741.645507812 112.6484375 613 c 4
 112.6484375 613 112.6484375 276.202148438 112.6484375 61 c 7
 112.6484375 0.2021484375 112.6484375 0 177.6484375 0 c 4
 268.6484375 0 l 5
 420.6484375 0 l 4
 482.844726562 0 483.654296875 1 483.654296875 132 c 7
 483.654296875 132.635742188 483.654296875 363 483.654296875 612 c 7
 483.654296875 612.609375 483.654296875 613.390625 483.654296875 614 c 4
 483.654296875 680.284179688 484.73828125 742 547.6484375 742 c 4
 709.6484375 742 l 5
 754.642578125 742 l 5
 789.6484375 742.01171875 l 7
 854.6484375 742.01171875 854.6484375 741.809570312 854.6484375 681.01171875 c 7
 854.6484375 465.809570312 854.6484375 129.01171875 854.6484375 129.01171875 c 7
 854.6484375 0.3662109375 854.6484375 0.3662109375 789.6484375 0.3662109375 c 4
 754.6484375 0 l 5
 559.6484375 0 l 1031
-651.1953125 0 m 2
 -465.655273438 0 l 2
 -187.3515625 0 -187.3515625 0 -187.3515625 278.302734375 c 2
 -187.3515625 463.84375 l 2
 -187.3515625 742.146484375 -187.3515625 742.146484375 -465.655273438 742.146484375 c 2
 -574.166015625 742.060546875 -491.01953125 742.060546875 -491.1953125 742.146484375 c 2
 -769.624023438 742.146484375 -769.89453125 741.875976562 -769.499023438 463.84375 c 2
 -769.73046875 463.935546875 -769.15234375 387.08203125 -768.103515625 278.302734375 c 2
 -766.018554688 1.044921875 -767.0625 0 -1046.40722656 0 c 2
 -1071.94726562 0 l 2
 -1350.25097656 0 -1350.25097656 0 -1350.25097656 278.302734375 c 2
 -1350.25097656 463.84375 l 2
 -1350.25097656 742.146484375 -1350.25097656 742.146484375 -1071.94726562 742.146484375 c 2
 -886.407226562 742.146484375 l 1026
EndSplineSet
Fore
SplineSet
175.296875 639.459960938 m 2
 175.296875 87.4599609375 l 2
 175.296875 75.5341796875 175.296875 65.939453125 175.788085938 58.220703125 c 1
 185.055664062 57.1162109375 197.6015625 57.1025390625 214.5859375 57.1025390625 c 0
 420.78125 57.1025390625 420.78125 57.1025390625 420.78125 57.1025390625 c 1
 420.989257812 70.859375 421.005859375 86.880859375 421.005859375 105.540039062 c 2
 421.005859375 587.540039062 l 2
 421.005859375 636.190429688 421.58984375 682.379882812 446.774414062 703.51171875 c 2
 546.360351562 787.07421875 l 2
 555.489257812 794.734375 567.849609375 799.102539062 584.5859375 799.102539062 c 2
 791.580078125 799.102539062 l 1
 826.5859375 799.114257812 l 2
 861.00390625 799.114257812 877.197265625 799.056640625 884.81640625 789.977539062 c 2
 910.52734375 759.3359375 l 2
 917.296875 751.267578125 917.296875 736.077148438 917.296875 707.471679688 c 2
 917.296875 155.471679688 l 2
 917.296875 77.55859375 917.296875 46.8330078125 902.857421875 34.7158203125 c 2
 803.271484375 -48.8466796875 l 2
 793.869140625 -56.736328125 778.342773438 -56.4677734375 752.711914062 -56.736328125 c 0
 717.711914062 -57.1025390625 717.711914062 -57.1025390625 717.711914062 -57.1025390625 c 1
 522.711914062 -57.1025390625 l 1
 497 -26.4599609375 l 1
 596.5859375 57.1025390625 l 1
 791.838867188 57.1025390625 l 1
 791.838867188 70.111328125 792 85.15625 792 102.551757812 c 2
 792 654.551757812 l 2
 792 666.477539062 792 676.072265625 791.509765625 683.791015625 c 1
 782.241210938 684.895507812 769.6953125 684.909179688 752.711914062 684.909179688 c 2
 717.706054688 684.897460938 l 1
 547.221679688 684.897460938 l 1
 546.360351562 670.795898438 546.302734375 655.75 546.302734375 640.459960938 c 2
 546.302734375 158.459960938 l 2
 546.302734375 78.0302734375 545.998046875 46.6044921875 531.3671875 34.328125 c 2
 431.78125 -49.234375 l 2
 422.583007812 -56.953125 407.720703125 -57.1025390625 383.711914062 -57.1025390625 c 2
 140.711914062 -57.1025390625 l 2
 106.29296875 -57.1025390625 90.099609375 -57.044921875 82.4814453125 -47.9658203125 c 2
 56.76953125 -17.32421875 l 2
 50 -9.255859375 50 5.9345703125 50 34.5400390625 c 2
 50 586.540039062 l 2
 50 664.453125 50 695.178710938 64.4404296875 707.295898438 c 2
 164.026367188 790.858398438 l 2
 173.428710938 798.748046875 188.953125 798.748046875 214.5859375 798.748046875 c 2
 457.5859375 799.102539062 l 1
 483.296875 768.459960938 l 1
 383.711914062 684.897460938 l 1
 175.454101562 684.59375 l 1
 175.454101562 671.657226562 175.296875 656.715820312 175.296875 639.459960938 c 2
EndSplineSet
Validated: 1
Ligature2: "'liga' Non-standard Ligatures lookup 0-2" O O
Ligature2: "'liga' Non-standard Ligatures lookup 0-2" O o
LCarets2: 1 0
EndChar

StartChar: uni0307
Encoding: 775 775 95
Width: 0
Flags: HW
HStem: 925.942 100.115<-508.849 -455.216>
VStem: -600.774 237.484
AnchorPoint: "Anchora 1" -484.016 930.348 mark 0
LayerCount: 2
Back
SplineSet
-514.169921875 976 m 5
 -427.89453125 976 l 1029
EndSplineSet
Fore
SplineSet
-581.506835938 883.942382812 m 1
 -600.790039062 906.923828125 l 1
 -508.864257812 984.057617188 l 1
 -382.588867188 984.057617188 l 1
 -363.305664062 961.076171875 l 1
 -455.231445312 883.942382812 l 1
 -581.506835938 883.942382812 l 1
EndSplineSet
EndChar

StartChar: uni030A
Encoding: 778 778 96
Width: 0
Flags: HW
HStem: 925.942 100.116<-546.424 -457.181> 1118.38 100.116<-541.239 -452.048>
AnchorPoint: "Anchora 1" -484.032 934.348 mark 0
LayerCount: 2
Back
SplineSet
-600.216796875 1127.015625 m 4
 -566.4453125 1163.33691406 -527.278320312 1168.32421875 -502.087890625 1168.32421875 c 7
 -491.426757812 1168.32421875 -501.578125 1168.43457031 -487.3046875 1168.43457031 c 7
 -421.1640625 1168.43457031 -391.627929688 1126.08105469 -385.48046875 1109.17480469 c 4
 -380.383789062 1095.15625 -377.197265625 1081.77441406 -380.383789062 1064.57128906 c 1028
-389.94140625 1029.52539062 m 4
 -417.977539062 983.646484375 -472.01953125 976.109375 -496.991210938 976.109375 c 7
 -507.65234375 976.109375 -497.500976562 976 -511.774414062 976 c 7
 -569.560546875 976 -613.598632812 1009.77148438 -619.333007812 1063.93359375 c 4
 -621.75390625 1086.79980469 -618.05859375 1094.51953125 -616.78515625 1098.97949219 c 1037
EndSplineSet
Fore
SplineSet
-445.782226562 1143.32421875 m 0
 -445.634765625 1143.32421875 -434.759765625 1143.43457031 -430.999023438 1143.43457031 c 0
 -385.416992188 1143.43457031 -357.219726562 1123.31835938 -342.083007812 1105.27929688 c 0
 -315.129882812 1073.15722656 -313.5625 1071.29003906 -309.891601562 1061.19335938 c 0
 -306.206054688 1051.05566406 -303.51953125 1041.25097656 -303.51953125 1030.09375 c 0
 -303.51953125 1025.82226562 -303.913085938 1021.35253906 -304.794921875 1016.58984375 c 2
 -327.66015625 997.404296875 l 1
 -314.352539062 981.543945312 l 1
 -320.39453125 971.657226562 -327.643554688 963.55078125 -335.549804688 956.916992188 c 2
 -427.475585938 879.782226562 l 2
 -456.255859375 855.6328125 -493.737304688 850.994140625 -513.328125 850.994140625 c 0
 -513.475585938 850.994140625 -524.350585938 850.884765625 -528.111328125 850.884765625 c 0
 -564.211914062 850.884765625 -594.946289062 864.065429688 -614.329101562 887.1640625 c 2
 -633.612304688 910.145507812 l 2
 -638.44140625 915.899414062 -655.7578125 936.884765625 -655.7578125 975.671875 c 0
 -655.7578125 985.10546875 -655.223632812 986.974609375 -652.405273438 996.845703125 c 1
 -628.877929688 1016.58789062 l 1
 -635.836914062 1024.88183594 l 1
 -631.790039062 1029.234375 -627.665039062 1033.13671875 -623.49609375 1036.63574219 c 2
 -531.5703125 1113.76953125 l 2
 -500.953125 1139.4609375 -467.954101562 1143.32421875 -445.782226562 1143.32421875 c 0
-543.74609375 1041.25 m 0
 -544.3828125 1037.99414062 -544.548828125 1035.0859375 -544.548828125 1029.82519531 c 0
 -544.548828125 1014.22851562 -541.729492188 994.6953125 -531.061523438 976.557617188 c 1
 -511.895507812 960.1484375 -485.544921875 951 -455.46875 951 c 0
 -451.708984375 951 -440.833984375 951.109375 -440.685546875 951.109375 c 0
 -432.639648438 951.109375 -421.57421875 951.892578125 -409.333984375 954.48828125 c 1
 -416.00390625 962.4375 l 2
 -415.122070312 967.19921875 -414.728515625 971.668945312 -414.728515625 975.940429688 c 0
 -414.728515625 990.295898438 -419.8828125 1006.54589844 -425.481445312 1016.12207031 c 0
 -441.91015625 1030.48242188 -467.228515625 1043.31933594 -503.641601562 1043.31933594 c 0
 -507.401367188 1043.31933594 -518.276367188 1043.20898438 -518.424804688 1043.20898438 c 0
 -525.823242188 1043.20898438 -534.427734375 1042.77832031 -543.74609375 1041.25 c 0
EndSplineSet
EndChar

StartChar: uni0306
Encoding: 774 774 97
Width: 0
Flags: W
HStem: 851 100.115<-550.216 -409.567>
AnchorPoint: "Anchora 1" -484.032 929.348 mark 0
LayerCount: 2
Back
SplineSet
-307.534179688 1128.15917969 m 7
 -307.534179688 1038 -389.799804688 976.172851562 -493 976.172851562 c 7
 -509.732421875 976.172851562 -493.799804688 976 -516.200195312 976 c 7
 -606.889648438 976 -682.471679688 1034 -682.471679688 1106.47949219 c 1028
EndSplineSet
Fore
SplineSet
-508.352539062 851.172851562 m 0
 -508.583984375 851.172851562 -525.65234375 851 -531.552734375 851 c 0
 -589.16015625 851 -640.671875 874.403320312 -670.587890625 910.0546875 c 2
 -689.87109375 933.036132812 l 2
 -707.049804688 953.509765625 -717.107421875 978.021484375 -717.107421875 1004.4609375 c 1
 -625.181640625 1081.59472656 l 1
 -605.8984375 1058.61328125 l 1
 -605.8984375 1037.11132812 -599.24609375 1016.8828125 -587.520507812 999.065429688 c 1
 -556.836914062 969.73828125 -510.298828125 951.115234375 -458.91015625 951.115234375 c 0
 -453.010742188 951.115234375 -435.942382812 951.288085938 -435.709960938 951.288085938 c 0
 -407.286132812 951.288085938 -380.450195312 955.978515625 -356.484375 964.659179688 c 1
 -347.255859375 983.057617188 -342.169921875 1003.72363281 -342.169921875 1026.140625 c 1
 -250.244140625 1103.27441406 l 1
 -230.9609375 1080.29296875 l 1
 -230.9609375 1036.59375 -250.287109375 999.55078125 -281.956054688 972.9765625 c 2
 -373.881835938 895.842773438 l 2
 -407.551757812 867.58984375 -455.171875 851.172851562 -508.352539062 851.172851562 c 0
EndSplineSet
EndChar

StartChar: uni0302
Encoding: 770 770 98
Width: 0
Flags: HW
HStem: 938.942 170.115
AnchorPoint: "Anchora 1" -484.032 929.348 mark 0
LayerCount: 2
Back
SplineSet
-691.995117188 987 m 1
 -691.995117188 987 -580.995117188 1012 -469.995117188 1059 c 1
 -455.995117188 1004 -309.995117188 989 -309.995117188 989 c 1025
EndSplineSet
Fore
SplineSet
-392.923828125 1005.58300781 m 0
 -348.911132812 972.842773438 -253.674804688 963.057617188 -253.674804688 963.057617188 c 1
 -234.390625 940.076171875 l 1
 -326.31640625 862.942382812 l 1
 -326.31640625 862.942382812 -423.661132812 872.943359375 -467 906.556640625 c 0
 -471.029296875 909.681640625 -474.591796875 913.010742188 -477.56640625 916.555664062 c 2
 -490.010742188 931.385742188 l 1
 -599.765625 885.390625 -708.31640625 860.942382812 -708.31640625 860.942382812 c 1
 -727.599609375 883.923828125 l 1
 -635.674804688 961.057617188 l 1
 -635.674804688 961.057617188 -524.674804688 986.057617188 -413.674804688 1033.05761719 c 1
 -394.390625 1010.07617188 l 2
 -394.001953125 1008.54785156 -393.510742188 1007.04980469 -392.923828125 1005.58300781 c 0
EndSplineSet
EndChar

StartChar: acutecomb
Encoding: 769 769 100
Width: 0
Flags: HW
HStem: 925.942 100.115<-629.849 -590.293>
AnchorPoint: "Anchora 1" -484.032 929.348 mark 0
LayerCount: 2
Back
SplineSet
-666.169921875 976 m 1
 -566 986.380779958 -418 1033.16076664 -350 1072 c 1024
EndSplineSet
Fore
SplineSet
-681.491210938 878 m 1
 -700.774414062 900.981445312 l 1
 -608.848632812 978.115234375 l 1
 -508.678710938 988.49609375 -360.678710938 1035.27636719 -292.678710938 1074.11523438 c 1
 -273.395507812 1051.13378906 l 1
 -365.321289062 974 l 1
 -433.321289062 935.161132812 -581.321289062 888.380859375 -681.491210938 878 c 1
EndSplineSet
EndChar

StartChar: gravecomb
Encoding: 768 768 101
Width: 0
Flags: HW
HStem: 1021.94 100.116<-613.037 -558.692>
AnchorPoint: "Anchora 1" -484.032 929.348 mark 0
LayerCount: 2
Back
SplineSet
-702.491210938 925.942382812 m 1
 -721.774414062 948.923828125 l 1
 -629.848632812 1026.05761719 l 1
 -529.678710938 1036.43839715 -381.678710938 1083.21838383 -313.678710938 1122.05761719 c 1
 -294.395507812 1099.07617188 l 1
 -386.321289062 1021.94238281 l 1
 -454.321289062 983.103149454 -602.321289062 936.323162771 -702.491210938 925.942382812 c 1
-345.830078125 976 m 5
 -446 986.380859375 -594 1033.16113281 -662 1072 c 1028
EndSplineSet
Fore
SplineSet
-288.524414062 946.057617188 m 1
 -269.241210938 923.076171875 l 1
 -361.166992188 845.942382812 l 1
 -379.374023438 860.193359375 -453.528320312 910.459960938 -677.336914062 941.942382812 c 1
 -696.620117188 964.923828125 l 1
 -604.694335938 1042.05761719 l 1
 -380.88671875 1010.57617188 -306.732421875 960.30859375 -288.524414062 946.057617188 c 1
EndSplineSet
EndChar

StartChar: tildecomb
Encoding: 771 771 102
Width: 0
Flags: HW
HStem: 899.942 100.135<-404.526 -337.38> 1055.92 100.139<-671.642 -627.87>
AnchorPoint: "Anchora 1" -484.032 929.348 mark 0
LayerCount: 2
Back
SplineSet
-650 950 m 0
 -762 950 -765 1106 -644 1106 c 0
 -570 1106 -487 950 -366 950 c 0
 -247.983398438 950 -245 1106 -366 1106 c 1024
EndSplineSet
Fore
SplineSet
-586.694335938 1109.05761719 m 0
 -513.16796875 1109.05761719 -430.75 955.038085938 -311.001953125 953.077148438 c 0
 -310.991210938 953.602539062 -310.985351562 954.127929688 -310.985351562 954.653320312 c 0
 -310.985351562 966.822265625 -313.89453125 978.966796875 -319.748046875 989.90234375 c 1
 -334.436523438 1001.515625 -354.935546875 1008.94238281 -381.336914062 1008.94238281 c 1
 -400.620117188 1031.92382812 l 1
 -308.694335938 1109.05761719 l 1
 -274.986328125 1109.05761719 -250.899414062 1096.95117188 -236.2421875 1079.48242188 c 2
 -216.958007812 1056.50097656 l 2
 -205.47265625 1042.81347656 -199.776367188 1025.83300781 -199.776367188 1008.80664062 c 0
 -199.776367188 987.28515625 -208.876953125 965.690429688 -226.890625 950.575195312 c 2
 -318.81640625 873.440429688 l 2
 -333.6484375 860.994140625 -354.5234375 852.942382812 -381.336914062 852.942382812 c 0
 -501.485351562 852.942382812 -584.166992188 1006.75488281 -657.7734375 1008.91894531 c 1
 -657.784179688 1008.38671875 -657.790039062 1007.85546875 -657.790039062 1007.32324219 c 0
 -657.790039062 994.672851562 -654.7265625 982.048828125 -648.663085938 970.782226562 c 1
 -634.899414062 959.926757812 -616.196289062 953.057617188 -592.694335938 953.057617188 c 1
 -573.411132812 930.076171875 l 1
 -665.336914062 852.942382812 l 1
 -695.720703125 852.942382812 -718.083007812 864.422851562 -732.123046875 881.15625 c 2
 -751.407226562 904.137695312 l 2
 -763.077148438 918.045898438 -768.999023438 935.58203125 -768.999023438 953.169921875 c 0
 -768.999023438 974.673828125 -760.147460938 996.252929688 -742.129882812 1011.37109375 c 2
 -650.205078125 1088.50585938 l 2
 -635.3359375 1100.98242188 -614.224609375 1109.05761719 -586.694335938 1109.05761719 c 0
EndSplineSet
EndChar

StartChar: uni030C
Encoding: 780 780 103
Width: 0
Flags: W
HStem: 900.942 198.116
AnchorPoint: "Anchora 1" -484 982 mark 0
LayerCount: 2
Back
SplineSet
-324 1049 m 5
 -324 1049 -465 1019 -493 951 c 5
 -511 1001 -706 1049 -706 1049 c 1029
EndSplineSet
Fore
SplineSet
-287.679147558 1099.05792323 m 1
 -268.395519268 1076.07658993 l 1
 -360.320852442 998.942076772 l 1
 -360.320852442 998.942076772 -403.75797887 989.700134979 -447.201546851 969.848355806 c 1
 -529.320852442 900.942076772 l 1
 -547.667403679 922.806645121 l 1
 -600.643953329 964.067763144 -742.320852442 998.942076772 -742.320852442 998.942076772 c 1
 -761.604480732 1021.92341007 l 1
 -669.679147558 1099.05792323 l 1
 -669.679147558 1099.05792323 -501.694072613 1057.70775093 -463.162345171 1011.78742633 c 2
 -461.372386107 1009.65423618 l 1
 -428.112283163 1037.56277629 l 2
 -377.634785773 1079.91842574 -287.679147558 1099.05792323 -287.679147558 1099.05792323 c 1
EndSplineSet
EndChar

StartChar: Tbar
Encoding: 358 358 151
Width: 960
Flags: HW
HStem: -57.1025 21G<426.292 466.909> -57.1025 21G<426.292 466.909> 475.897 114.205<149.586 417.362 542.659 810.443> 685.046 114.205<149.586 491.403 534.934 810.443>
VStem: 417.362 125.297<26.46 475.897 590.103 622.919>
AnchorPoint: "Attacha 4 Cedilla" 484 0 basechar 0
LayerCount: 2
Back
SplineSet
109.365234375 533 m 5
 851.517578125 533 l 1029
480.4375 649.37890625 m 5
 480.4375 0 l 1029
109.365234375 742.1484375 m 5
 851.517578125 742.1484375 l 1029
EndSplineSet
Fore
SplineSet
542.659179688 590.102539062 m 1xb8
 884.317382812 590.102539062 l 1
 910.028320312 559.459960938 l 1
 810.443359375 475.897460938 l 1
 542.659179688 475.897460938 l 1
 542.659179688 26.4599609375 l 1
 443.07421875 -57.1025390625 l 1
 417.362304688 -26.4599609375 l 1
 417.362304688 475.897460938 l 1
 75.7119140625 475.897460938 l 1
 50 506.540039062 l 1
 149.5859375 590.102539062 l 1
 417.362304688 590.102539062 l 1
 417.362304688 622.918945312 l 1
 491.403320312 685.045898438 l 1
 75.7119140625 685.045898438 l 1
 50 715.688476562 l 1
 149.5859375 799.250976562 l 1
 884.317382812 799.250976562 l 1
 910.028320312 768.608398438 l 1
 810.443359375 685.045898438 l 1
 534.93359375 685.045898438 l 1
 542.659179688 675.838867188 l 1
 542.659179688 590.102539062 l 1xb8
EndSplineSet
EndChar

StartChar: tbar
Encoding: 359 359 152
Width: 967
Flags: HW
HStem: -57.1025 21G<430.002 470.619> -57.1025 21G<430.002 470.619> 475.897 114.205<149.586 495.113 538.644 817.864> 685.046 114.205<149.586 817.864>
VStem: 421.072 125.297<26.46 413.771>
AnchorPoint: "Attacha 4 Cedilla" 484 0 basechar 0
LayerCount: 2
Back
SplineSet
483.720703125 440.23046875 m 5
 483.720703125 0 l 1029
112.6484375 533 m 5
 854.80078125 533 l 1029
112.6484375 742.1484375 m 5
 854.80078125 742.1484375 l 1029
EndSplineSet
Fore
SplineSet
75.7119140625 685.045898438 m 1x38
 50 715.688476562 l 1
 149.5859375 799.250976562 l 1
 891.73828125 799.250976562 l 1
 917.44921875 768.608398438 l 1
 817.864257812 685.045898438 l 1
 75.7119140625 685.045898438 l 1x38
75.7119140625 475.897460938 m 1
 50 506.540039062 l 1
 149.5859375 590.102539062 l 1
 891.73828125 590.102539062 l 1
 917.44921875 559.459960938 l 1
 817.864257812 475.897460938 l 1
 538.643554688 475.897460938 l 1
 546.369140625 466.690429688 l 1
 546.369140625 26.4599609375 l 1
 446.784179688 -57.1025390625 l 1xb8
 421.072265625 -26.4599609375 l 1
 421.072265625 413.770507812 l 1
 495.11328125 475.897460938 l 1
 75.7119140625 475.897460938 l 1
EndSplineSet
EndChar

StartChar: hookabovecomb
Encoding: 777 777 159
Width: 1075
Flags: HW
AnchorPoint: "Anchora 1" -537 930.348 mark 0
LayerCount: 2
Back
SplineSet
-628 1124 m 25
 -408 1124 l 0
 -513 970 l 1024
EndSplineSet
Fore
SplineSet
-479.2734375 1028.94238281 m 1
 -664.321289062 1028.94238281 l 1
 -683.604492188 1051.92382812 l 1
 -591.678710938 1129.05761719 l 1
 -371.678710938 1129.05761719 l 1
 -352.395507812 1106.07617188 l 1
 -457.395507812 952.076171875 l 1
 -549.321289062 874.942382812 l 1
 -568.604492188 897.923828125 l 1
 -479.2734375 1028.94238281 l 1
EndSplineSet
EndChar

StartChar: uni031B
Encoding: 795 795 160
Width: 0
Flags: W
VStem: -37 125.298<883.346 950.424>
AnchorPoint: "Attacha 2" -175 716 mark 0
LayerCount: 2
Back
SplineSet
-138 719 m 1
 24 854.000976562 l 25
 24 974 l 1025
EndSplineSet
Fore
SplineSet
-148.999023438 684.897460938 m 1
 -175 716 l 1
 -37 830.999023438 l 1
 -37 950.423828125 l 1
 62.5859375 1033.98632812 l 1
 88.2978515625 1003.34472656 l 1
 88.2978515625 883.345703125 l 1
 -148.999023438 684.897460938 l 1
EndSplineSet
EndChar

StartChar: dotbelowcomb
Encoding: 803 803 171
Width: 1075
Flags: W
HStem: -300.115 100.115<-518 -464.367>
VStem: -609.926 237.484
AnchorPoint: "Anchora 3" -484 -200 mark 0
LayerCount: 2
Fore
SplineSet
-590.642578125 -300.115234375 m 1
 -609.92578125 -277.133789062 l 1
 -518 -200 l 1
 -391.724609375 -200 l 1
 -372.44140625 -222.981445312 l 1
 -464.3671875 -300.115234375 l 1
 -590.642578125 -300.115234375 l 1
EndSplineSet
EndChar

StartChar: uni0327
Encoding: 807 807 173
Width: 1075
Flags: HW
AnchorPoint: "Attacha 4 Cedilla" -484.034 0 mark 0
LayerCount: 2
Back
SplineSet
-432 -110 m 5
 -432 -295.5390625 l 5
 -649 -295.5390625 l 1029
EndSplineSet
Fore
SplineSet
-494.6484375 -208.436523438 m 1
 -494.6484375 -106.459960938 l 1
 -395.0625 -22.8974609375 l 1
 -369.3515625 -53.5400390625 l 1
 -369.3515625 -239.079101562 l 1
 -468.9375 -322.641601562 l 1
 -685.9375 -322.641601562 l 1
 -711.6484375 -291.999023438 l 1
 -612.0625 -208.436523438 l 1
 -494.6484375 -208.436523438 l 1
EndSplineSet
EndChar

